<svg version="1.1" id="Layer_1" xmlns="http://www.w3.org/2000/svg" x="0" y="0" viewBox="0 0 26.3 26.3" xml:space="preserve"><style>.st0{fill:#414042}</style><path class="st0" d="M6.9 18c-.6 0-1.2 0-1.5-.1-2.1-.6-3.3-3.1-3.3-5.1v-1.2c0-.1 0-.2.1-.2 0-.1 0-.1.1-.2 0-.1.1-.2.1-.2 0-.1.1-.1.1-.2s.1-.1.1-.2.1-.1.1-.2.1-.1.1-.2c.2-.1.2-.2.2-.2 0-.1.1-.1.1-.2l.1-.1.2-.2.2-.2c.2-.2.3-.2.3-.3l.1-.1h.1c.1-.1.1-.1.2-.1s.1-.1.2-.1c.1-.1.2-.1.2-.1.1 0 .1-.1.2-.1 0-.1.1-.2.1-.2.1 0 .1-.1.2-.1s.1-.1.2-.1.1-.1.2-.1h.2l.1.2v-.3c.1.1.1.1.2.1h.6c.3-2.6 2.5-4.6 5-4.6h.8c.1 0 .3 0 .4.1h.2c.1 0 .3.1.4.1l.2.1c.1.2.3.2.4.3.2.1.4.2.5.3.2.1.3.2.4.3l.1.1.3.3.1.1c.1.1.2.3.3.4.4.6.7 1.2.8 1.9 1.5.1 2.8 1 3.3 2.4.3 0 .6.1.9.1.2.1.4.1.6.2l.6.3c.4.3.7.6.9.9l.3.6c.1.2.2.4.2.6.1.3.1.7.1 1.1 0 2-1.3 4.2-3.4 4.2h-.7v-.5h.7c1.8 0 2.9-1.8 2.9-3.6 0-.3 0-.6-.1-.9-.1-.2-.1-.4-.2-.5-.1-.2-.2-.4-.3-.5-.2-.3-.5-.6-.8-.8-.1-.1-.3-.2-.5-.3-.2-.1-.4-.2-.5-.2-.3-.1-.6-.1-.9-.1h-.3l-.1-.2C19.2 9 18 8.1 16.5 8.1h-.2v-.2c-.1-.7-.4-1.3-.8-1.9-.1-.1-.2-.3-.3-.4l-.3-.3-.1-.1-.3-.3.1-.3-.2.2c-.1-.1-.3-.2-.4-.3-.2-.1-.3-.2-.5-.2l-.1-.1c-.1 0-.2-.1-.3-.1h-.2c-.1 0-.2 0-.4-.1h-.7C9.4 4 7.4 5.8 7.1 8.2v.2H5.8c-.1 0-.1 0-.2.1-.1 0-.1 0-.2.1-.1 0-.1.1-.2.1s-.1.1-.2.1c0 .1 0 .1-.1.2-.1 0-.1 0-.2.1 0 0-.1 0-.1.1l-.1.1h-.2s-.1 0-.1.1c-.1 0-.1.1-.2.1 0 .1-.1.2-.1.3-.1 0-.1.1-.2.1l-.1.1c0 .1-.1.1-.1.2l-.1.1c0 .1-.1.1-.1.2s-.1.1-.1.2-.1.1-.1.2-.1.2-.1.2c0 .1 0 .1-.1.2 0 .1-.1.1-.1.2v1.3c0 1.8 1 4.1 2.9 4.6.1 0 .4.1 1.3.1l-.1.5c.1 0 0 0 0 0z"/><path class="st0" d="M15.5 11c-.1 0-.1 0-.2-.1s-.1-.3 0-.4c.6-.8 1-1.8 1-2.9 0-.1.1-.3.3-.3.1 0 .3.1.3.3 0 1.2-.4 2.3-1.1 3.2-.1.1-.2.2-.3.2zm2.4.4c-.1 0-.1 0-.2-.1s-.1-.3 0-.4c.7-.6 1.5-.9 2.4-.9.1 0 .3.1.3.3s-.1.3-.3.3c-.8 0-1.5.3-2.1.8h-.1zm-5.6 11.5h-.6c-.4 0-.7-.3-.7-.7v-.6c-.3-.1-.6-.2-.9-.4l-.4.4c-.3.3-.7.3-1 0l-.4-.4c-.1-.1-.2-.3-.2-.5s.1-.4.2-.5l.4-.4c-.2-.3-.3-.6-.4-.9h-.6c-.2 0-.4-.1-.5-.2-.1-.1-.2-.3-.2-.5v-.6c0-.4.3-.7.7-.7h.6c.1-.3.2-.6.4-.8l-.4-.4c-.3-.3-.3-.7 0-1l.4-.4c.3-.3.7-.3 1 0l.4.4c.3-.1.5-.3.8-.3v-.6c0-.4.3-.7.7-.7h.6c.4 0 .7.3.7.7v.6c.3.1.6.2.9.4l.4-.4c.3-.3.7-.3 1 0l.4.4c.1.1.2.3.2.5s-.1.4-.2.5l-.4.4c.2.3.3.6.4.9h.6c.4 0 .7.3.7.7v.6c0 .4-.3.7-.7.7h-.6c-.1.3-.2.6-.4.9l.4.4c.1.1.2.3.2.5s-.1.4-.2.5l-.4.4c-.3.3-.7.3-1 0l-.4-.4c-.3.2-.6.3-.9.4v.6c.1.2-.2.5-.6.5z"/><path d="M10.1 20.7l.1.1c.3.2.7.3 1 .4h.2v.9c0 .2.1.3.3.3h.6v.2-.2c.2 0 .3-.1.3-.3v-.9h.2c.4-.1.7-.2 1-.4l.1-.1.7.7c.1.1.3.1.4 0l.4-.4c.1-.1.1-.1.1-.2s0-.1-.1-.2l-.7-.7.1-.1c.2-.3.3-.7.4-1v-.2h.9c.2 0 .3-.1.3-.3v-.6c0-.2-.1-.3-.3-.3h-.9v-.2c-.1-.4-.2-.7-.4-1l-.1-.1.7-.7c.1-.1.1-.1.1-.2s0-.1-.1-.2l-.4-.3c-.1-.1-.3-.1-.4 0l-.7.7-.1-.1c-.3-.2-.7-.3-1-.4h-.2V14c0-.2-.1-.3-.3-.3h-.6c-.2 0-.3.1-.3.3v.9h-.2c-.4.1-.7.2-1 .4l-.1.1-.7-.7c-.1-.1-.3-.1-.4 0l-.4.4c-.1.1-.1.3 0 .4l.7.7-.1.1c-.2.3-.3.7-.4 1v.2h-.9c-.2 0-.3.1-.3.3v.6c0 .1 0 .1.1.2s.1.1.2.1h.9v.2c.1.4.2.7.4 1l.1.1-.7.7c-.1.1-.1.1-.1.2s0 .1.1.2l.4.4c.1.1.3.1.4 0l.7-.8z" fill="#fff"/><circle class="st0" cx="12" cy="18" r="1.8"/><circle cx="12" cy="18" r="1.3" fill="#d3d3d3"/></svg>