<svg version="1.1" id="Layer_1" xmlns="http://www.w3.org/2000/svg" x="0" y="0" viewBox="0 0 26.3 26.3" xml:space="preserve"><style>.st3{fill:#d6d6d6}.st5{fill:#d6dadd}</style><path d="M21.6 7.3H4.8c-.4 0-.8.3-.8.7v10.4h18.6V8.1c-.2-.5-.5-.8-1-.8z" fill="#fff"/><path fill="#eaeaea" d="M19.3 11l-3 3h-3.1l-3-1.9L7.1 14l-3 1.1v4.1h18.3v-8.5z"/><path fill="#f4f4f4" d="M4.1 15.2L4 15l3.1-1.1 3.1-1.9 3 1.9h3l3.1-3 3.1-.3v.1l-3 .4-3.1 3h-3.1l-3-1.9-3 1.9z"/><ellipse class="st3" cx="7.1" cy="14" rx=".4" ry=".4"/><ellipse class="st3" cx="10.2" cy="12.1" rx=".4" ry=".4"/><ellipse class="st3" cx="19.3" cy="11" rx=".4" ry=".4"/><ellipse class="st3" cx="16.3" cy="14" rx=".4" ry=".4"/><ellipse class="st3" cx="13.2" cy="14" rx=".4" ry=".4"/><path d="M1.8 18.4c0 .8.7 1.5 1.5 1.5h19.8c.8 0 1.5-.7 1.5-1.5H1.8z" fill="#b7b7b7"/><path class="st5" d="M10.9 18.4c0 .4.3.7.8.7v-.7h-.8zm3.9.8c.4 0 .8-.3.8-.7h-.8v.7z"/><path class="st5" d="M14 18.4h-1.5c0 .4-.3.7-.8.7h3.1c-.5.1-.8-.3-.8-.7z"/><path class="st5" d="M12.5 18.4h-.8v.7c.4.1.8-.3.8-.7zm1.5 0c0 .4.3.7.8.7v-.7H14z"/><path d="M22.1 8.2V18H4.4V8s0-.3.3-.3h16.8c.4 0 .6.5.6.5zm-.5-.9H4.8c-.4 0-.8.3-.8.7v10.4h18.3V8.1c.1-.5-.2-.8-.7-.8z" fill="#545354"/><path d="M9.7 10.8l2.5-1.1v.4l-2 .9 2 .9v.4l-2.5-1.1v-.4zm2.9 1.7l1.3-3.6h.5l-1.3 3.6h-.5zm4.6-1.3l-2.5 1.1v-.4l2-.9-2-.9v-.4l2.5 1.1v.4z" fill="#58595b"/></svg>