<svg version="1.1" id="Layer_1" xmlns="http://www.w3.org/2000/svg" x="0" y="0" viewBox="0 0 26.3 26.3" xml:space="preserve"><style>.st0{fill:#fff}.st2{fill:#414042}.st5{fill:#e5e5e5}</style><path class="st0" d="M19 5.7l-5 5c-.2.2-.2.5 0 .7l-.4.4c-.1.1-.1.2 0 .3l.4.4c.1.1.2.1.3 0l.4-.4c.2.2.5.1.7 0l5-5c.2-.2.2-.5 0-.7l-.6-.6c-.3-.3-.6-.3-.8-.1z"/><path d="M13.7 12.3l.2.2c.1.1.2.1.3 0l.4-.4c.2.2.5.1.7 0l5-5c.2-.2.2-.5 0-.7L20 6l-6.3 6.3z" fill="#f1f2f2"/><path class="st2" d="M14 12.6c-.1 0-.2 0-.2-.1l-.4-.4c-.1-.1-.1-.3 0-.4l.3-.3c-.1-.2-.1-.5.1-.7l5-5c.2-.2.6-.2.9 0l.6.6c.2.2.2.6 0 .9l-5 5c-.1.1-.3.2-.4.2-.1 0-.2 0-.3-.1l-.3.3H14zm5.4-6.9c-.1 0-.2 0-.3.1l-5 5c-.1.1-.1.4 0 .5l.1.1-.5.5v.1l.3.4h.1l.5-.5.1.1c.1.1.4.1.5 0l5-5c.1-.1.1-.4 0-.5l-.6-.6c0-.2-.1-.2-.2-.2z"/><path d="M19.8 7.6L21.3 6c.4-.4.4-1 0-1.3-.4-.4-1-.4-1.3 0l-1.6 1.6 1.4 1.3z" fill="#d1d1d1"/><path d="M19.8 7.6L21.3 6c.4-.4.4-1 0-1.3l-2.2 2.2.7.7z" fill="#afafaf"/><path class="st2" d="M19.8 7.7l-1.5-1.5 1.6-1.6c.2-.2.5-.3.8-.3.3 0 .6.1.8.3.4.4.4 1.1 0 1.5l-1.7 1.6zm-1.2-1.5l1.2 1.2 1.5-1.5c.3-.3.3-.8 0-1.2-.3-.3-.9-.3-1.2 0l-1.5 1.5z"/><path class="st0" d="M20.6 7.9c.1.1.1.4 0 .5-.1.1-.4.1-.5 0l-2.5-2.5c-.1-.1-.1-.4 0-.5.1-.1.4-.1.5 0l2.5 2.5z"/><path class="st2" d="M20.3 8.6c-.1 0-.3-.1-.3-.1L17.5 6c-.1-.1-.1-.2-.1-.3 0-.1.1-.3.1-.3.2-.2.5-.2.7 0l2.5 2.5c.2.2.2.5 0 .7h-.4zm-2.5-3.2c-.1 0-.1 0-.2.1 0 0-.1.1-.1.2s0 .1.1.2l2.5 2.5c.1.1.3.1.4 0 .1-.1.1-.3 0-.4L18 5.5c0-.1-.1-.1-.2-.1z"/><path class="st5" d="M14.7 15.1c0 .7-.5 1.2-1.2 1.2s-1.2-.5-1.2-1.2 1.3-2.5 1.3-2.5 1.1 1.8 1.1 2.5z"/><path class="st2" d="M13.5 16.4c-.7 0-1.3-.6-1.3-1.3 0-.7 1.3-2.4 1.3-2.5l.1-.1.1.1c0 .1 1.1 1.8 1.1 2.5s-.6 1.3-1.3 1.3zm.1-3.6c-.4.6-1.2 1.8-1.2 2.2 0 .6.5 1.1 1.1 1.1.6 0 1.1-.5 1.1-1.1 0-.4-.7-1.6-1-2.2z"/><path class="st2" d="M13.5 16s-.1 0-.1-.1 0-.1.1-.1c.3-.1.6-.3.7-.6 0-.1.1-.1.2-.1s.1.1.1.2c-.2.3-.5.6-1 .7.1 0 .1 0 0 0z"/><path d="M9.1 22.7c0 .3-.3.5-.6.5H4.7c-.3 0-.6-.2-.6-.5v-3.1c0-.3.3-.5.6-.5h3.8c.3 0 .6.2.6.5v3.1z" fill="#d6d6d6"/><path class="st0" d="M15.2 22.7c0 .3-.3.5-.6.5h-3.8c-.3 0-.6-.2-.6-.5v-3.1c0-.3.3-.5.6-.5h3.8c.3 0 .6.2.6.5v3.1z"/><path class="st5" d="M21.4 22.7c0 .3-.3.5-.6.5H17c-.3 0-.6-.2-.6-.5v-3.1c0-.3.3-.5.6-.5h3.8c.3 0 .6.2.6.5v3.1z"/><path class="st2" d="M8.5 23.3H4.7c-.4 0-.8-.3-.8-.6v-3.1c0-.4.4-.6.8-.6h3.8c.4 0 .8.3.8.6v3.1c0 .3-.4.6-.8.6zm-3.8-4c-.2 0-.4.1-.4.3v3.1c0 .2.2.3.4.3h3.8c.2 0 .4-.1.4-.3v-3.1c0-.2-.2-.3-.4-.3H4.7zm10 4h-3.8c-.4 0-.8-.3-.8-.6v-3.1c0-.4.4-.6.8-.6h3.8c.4 0 .8.3.8.6v3.1c0 .3-.4.6-.8.6zm-3.8-4c-.2 0-.4.1-.4.3v3.1c0 .2.2.3.4.3h3.8c.2 0 .4-.1.4-.3v-3.1c0-.2-.2-.3-.4-.3h-3.8zm9.9 4H17c-.4 0-.8-.3-.8-.6v-3.1c0-.4.4-.6.8-.6h3.8c.4 0 .8.3.8.6v3.1c0 .3-.3.6-.8.6zm-3.8-4c-.2 0-.4.1-.4.3v3.1c0 .2.2.3.4.3h3.8c.2 0 .4-.1.4-.3v-3.1c0-.2-.2-.3-.4-.3H17z"/><path class="st2" d="M8.1 22.3c-.1 0-.2-.1-.2-.2v-2c0-.1.1-.2.2-.2s.2.1.2.2v2c0 .1-.1.2-.2.2zm6.2 0c-.1 0-.2-.1-.2-.2v-2c0-.1.1-.2.2-.2s.2.1.2.2v2c0 .1-.1.2-.2.2zm6.2 0c-.1 0-.2-.1-.2-.2v-2c0-.1.1-.2.2-.2s.2.1.2.2v2c0 .1-.1.2-.2.2z"/></svg>