<?xml version="1.0" encoding="utf-8"?>
<!-- Generator: Adobe Illustrator 20.1.0, SVG Export Plug-In . SVG Version: 6.00 Build 0)  -->
<svg version="1.1" id="Layer_1" xmlns="http://www.w3.org/2000/svg" xmlns:xlink="http://www.w3.org/1999/xlink" x="0px" y="0px"
	 viewBox="0 0 50.7 50.7" style="enable-background:new 0 0 50.7 50.7;" xml:space="preserve">
<style type="text/css">
	.st0{fill:#414042;}
	.st1{fill:#FFFFFF;}
	.st2{fill:#58595B;}
</style>
<g>
	<g>
		<path class="st0" d="M9.6,24.9c-1,0-1.9,0-2.3-0.2c-3.4-0.9-5.2-4.9-5.2-8.1c0-0.3,0-0.6,0.1-1c0-0.2,0-0.3,0.1-0.5
			c0-0.1,0-0.2,0.1-0.2l0-0.1c0-0.2,0.1-0.3,0.1-0.4c0-0.1,0.1-0.2,0.1-0.3c0.1-0.2,0.1-0.3,0.1-0.4c0-0.1,0.1-0.2,0.1-0.3
			c0-0.1,0.1-0.2,0.2-0.3C3,13,3,12.9,3.1,12.8c0.1-0.1,0.1-0.2,0.2-0.3c0.1-0.1,0.1-0.2,0.2-0.3c0.1-0.1,0.1-0.2,0.2-0.3l0.1-0.1
			c0-0.1,0.1-0.1,0.1-0.2c0.1-0.1,0.2-0.2,0.3-0.3c0.1-0.1,0.3-0.3,0.4-0.4c0.1-0.1,0.2-0.2,0.3-0.3c0.1,0,0.1-0.1,0.2-0.1l0.1-0.1
			c0.1-0.1,0.2-0.2,0.3-0.2c0.1-0.1,0.2-0.1,0.3-0.2C5.8,10.1,5.9,10,6,10c0.1-0.1,0.2-0.1,0.3-0.2c0.1-0.1,0.2-0.1,0.3-0.1
			c0.1-0.1,0.2-0.1,0.3-0.1c0.1,0,0.2-0.1,0.3-0.1c0.1,0,0.2-0.1,0.3-0.1c0.1,0,0.2,0,0.2-0.1L8,9.6l0-0.4c0.1,0,0.2,0,0.3-0.1
			c0.1,0,0.2,0,0.3,0C8.8,9,9,9,9.2,9c0.5-4,4-7.1,8.1-7.1c0.3,0,0.6,0,0.9,0.1c0.1,0,0.1,0,0.2,0l0.1,0c0.2,0,0.4,0.1,0.6,0.1
			c0.1,0,0.2,0,0.3,0.1c0.2,0.1,0.4,0.1,0.6,0.2l0.2,0.1c0.3,0.1,0.5,0.2,0.8,0.4c0.3,0.2,0.6,0.3,0.8,0.5l0.1,0.1
			c0.2,0.2,0.4,0.3,0.6,0.5l0.2,0.1c0.2,0.2,0.4,0.3,0.5,0.5l0.1,0.1c0.2,0.2,0.4,0.5,0.5,0.7c0.6,0.9,1.1,2,1.3,3.1
			c2.3,0.2,4.4,1.6,5.3,3.8c0.5,0,1,0.1,1.4,0.2c0.4,0.1,0.7,0.2,1,0.4c0.4,0.2,0.7,0.3,0.9,0.5c0.6,0.4,1.1,0.9,1.5,1.4
			c0.2,0.3,0.4,0.6,0.5,0.9c0.2,0.4,0.3,0.7,0.4,1c0.1,0.5,0.2,1.1,0.2,1.7c0,3.2-2,6.6-5.5,6.6h-1.1v-0.8h1.1
			c2.9,0,4.6-2.9,4.6-5.7c0-0.5-0.1-1-0.2-1.4c-0.1-0.3-0.2-0.6-0.3-0.9c-0.1-0.3-0.3-0.6-0.5-0.8c-0.4-0.5-0.8-0.9-1.3-1.3
			c-0.2-0.2-0.5-0.3-0.8-0.4c-0.3-0.1-0.6-0.2-0.9-0.3c-0.5-0.1-0.9-0.2-1.4-0.2l-0.5,0l-0.1-0.3c-0.8-2.1-2.7-3.5-5-3.5l-0.4,0
			L24.4,9c-0.2-1.1-0.6-2.1-1.2-3c-0.2-0.2-0.3-0.4-0.5-0.6l-0.1-0.1c-0.2-0.2-0.4-0.4-0.5-0.5L22,4.6c-0.2-0.2-0.4-0.3-0.5-0.4
			l0.1-0.4l-0.2,0.3c-0.2-0.2-0.5-0.3-0.7-0.4c-0.2-0.1-0.5-0.2-0.7-0.3l-0.2-0.1c-0.2-0.1-0.4-0.1-0.6-0.2C19.1,3,19,3,18.9,3
			c-0.2,0-0.4-0.1-0.6-0.1l-0.3,0c-0.3,0-0.6-0.1-0.8-0.1c-3.7,0-6.9,2.9-7.3,6.7l0,0.4l-0.4,0c-0.3,0-0.5,0-0.8,0.1
			c-0.2,0-0.2,0-0.3,0c-0.1,0-0.2,0-0.2,0.1L8,10c-0.1,0-0.1,0-0.2,0.1c-0.1,0-0.2,0.1-0.3,0.1c-0.1,0-0.2,0.1-0.3,0.1
			c-0.1,0-0.2,0.1-0.3,0.1c-0.1,0-0.2,0.1-0.3,0.1c-0.1,0-0.2,0.1-0.3,0.1c-0.1,0-0.2,0.1-0.2,0.1C6,10.9,5.9,11,5.9,11
			c-0.1,0-0.1,0.1-0.2,0.2l-0.1,0.1c0,0-0.1,0.1-0.1,0.1c-0.1,0.1-0.2,0.2-0.3,0.2C5,11.8,4.9,11.9,4.8,12c-0.1,0.1-0.2,0.2-0.3,0.3
			c0,0.1-0.1,0.1-0.1,0.2l-0.1,0.1c-0.1,0.1-0.1,0.2-0.2,0.3c0,0.1-0.1,0.1-0.1,0.2c-0.1,0.1-0.1,0.2-0.2,0.3
			c-0.1,0.1-0.1,0.2-0.1,0.3c0,0.1-0.1,0.2-0.1,0.3c0,0.1-0.1,0.2-0.1,0.3c0,0.1-0.1,0.2-0.1,0.3c-0.1,0.2-0.1,0.2-0.1,0.3
			c0,0.1,0,0.2-0.1,0.2l0,0.2c0,0.1,0,0.1,0,0.2c0,0.1,0,0.3-0.1,0.4c0,0.4-0.1,0.6-0.1,0.9c0,2.9,1.6,6.5,4.6,7.3
			c0.2,0.1,0.7,0.2,2.1,0.1H9.6L9.6,24.9L9.6,24.9C9.6,24.9,9.6,24.9,9.6,24.9z"/>
	</g>
	<g>
		<path class="st0" d="M23.2,13.9c-0.1,0-0.2,0-0.3-0.1c-0.2-0.1-0.2-0.4-0.1-0.6c1-1.3,1.6-2.9,1.6-4.6c0-0.2,0.2-0.4,0.4-0.4
			c0.2,0,0.4,0.2,0.4,0.4c0,1.9-0.6,3.6-1.7,5.1C23.5,13.8,23.4,13.9,23.2,13.9z"/>
	</g>
	<g>
		<path class="st0" d="M27,14.5c-0.1,0-0.2,0-0.3-0.1c-0.2-0.2-0.1-0.4,0-0.6c1.1-1,2.4-1.5,3.9-1.5c0.2,0,0.4,0.2,0.4,0.4
			c0,0.2-0.2,0.4-0.4,0.4c-1.2,0-2.4,0.4-3.3,1.3C27.2,14.5,27.1,14.5,27,14.5z"/>
	</g>
	<g>
		<path class="st0" d="M18.1,32.8l-0.9,0c-0.6,0-1.1-0.5-1.1-1.1l0-0.9c-0.5-0.1-0.9-0.3-1.3-0.6l-0.7,0.7c-0.4,0.4-1.2,0.4-1.6,0
			l-0.6-0.6c-0.2-0.2-0.3-0.5-0.3-0.8c0-0.3,0.1-0.6,0.3-0.8l0.7-0.7c-0.2-0.4-0.4-0.9-0.6-1.3l-0.9,0c-0.3,0-0.6-0.1-0.8-0.3
			c-0.2-0.2-0.3-0.5-0.3-0.8l0-0.9c0-0.6,0.5-1.1,1.1-1.1l0.9,0c0.1-0.5,0.3-0.9,0.6-1.3l-0.7-0.7c-0.4-0.4-0.4-1.1,0-1.6l0.6-0.6
			c0.4-0.4,1.2-0.4,1.6,0l0.7,0.7c0.4-0.2,0.9-0.4,1.3-0.5v-0.9c0-0.6,0.5-1.1,1.1-1.1h0.9c0.6,0,1.1,0.5,1.1,1.1v0.9
			c0.5,0.1,0.9,0.3,1.3,0.6l0.7-0.7c0.4-0.4,1.1-0.4,1.6,0l0.6,0.6c0.2,0.2,0.3,0.5,0.3,0.8c0,0.3-0.1,0.6-0.3,0.8l-0.7,0.7
			c0.2,0.4,0.4,0.9,0.6,1.3l0.9,0c0.6,0,1.1,0.5,1.1,1.1l0,0.9c0,0.6-0.5,1.1-1.1,1.1l0,0l-0.9,0c-0.1,0.5-0.3,0.9-0.6,1.3l0.7,0.7
			c0.2,0.2,0.3,0.5,0.3,0.8c0,0.3-0.1,0.6-0.3,0.8l-0.6,0.6c-0.4,0.4-1.2,0.4-1.6,0l-0.7-0.7c-0.4,0.2-0.9,0.4-1.3,0.6l0,0.9
			C19.2,32.3,18.7,32.8,18.1,32.8z M14.7,29.3l0.2,0.1c0.5,0.3,1,0.5,1.6,0.7l0.3,0.1l0,1.5c0,0.2,0.2,0.4,0.4,0.4l0.9,0l0,0.3v-0.3
			c0.2,0,0.4-0.2,0.4-0.4l0-1.5l0.3-0.1c0.6-0.1,1.1-0.4,1.6-0.7l0.2-0.1l1,1c0.2,0.2,0.5,0.2,0.6,0l0.6-0.6
			c0.1-0.1,0.1-0.2,0.1-0.3c0-0.1,0-0.2-0.1-0.3l-1-1l0.1-0.2c0.3-0.5,0.5-1,0.7-1.6l0.1-0.3l1.5,0c0.2,0,0.4-0.2,0.4-0.4l0-0.9
			c0-0.2-0.2-0.4-0.4-0.4l-1.5,0l-0.1-0.3c-0.1-0.6-0.4-1.1-0.7-1.6l-0.1-0.2l1-1c0.1-0.1,0.1-0.2,0.1-0.3c0-0.1,0-0.2-0.1-0.3
			l-0.6-0.6c-0.2-0.2-0.5-0.2-0.6,0l-1,1l-0.2-0.1c-0.5-0.3-1-0.5-1.6-0.7l-0.3-0.1v-1.5c0-0.2-0.2-0.4-0.4-0.4h-0.9
			c-0.2,0-0.4,0.2-0.4,0.4v1.5L16.5,20c-0.6,0.1-1.1,0.3-1.6,0.7l-0.2,0.1l-1-1c-0.2-0.2-0.5-0.2-0.6,0l-0.6,0.6
			c-0.2,0.2-0.2,0.5,0,0.6l1,1l-0.1,0.2c-0.3,0.5-0.5,1-0.7,1.6l-0.1,0.3l-1.5,0c-0.2,0-0.4,0.2-0.4,0.4l0,0.9c0,0.1,0,0.2,0.1,0.3
			c0.1,0.1,0.2,0.1,0.3,0.1l1.5,0l0.1,0.3c0.1,0.6,0.4,1.1,0.7,1.6l0.1,0.2l-1,1c-0.1,0.1-0.1,0.2-0.1,0.3c0,0.1,0,0.2,0.1,0.3
			l0.6,0.6c0.2,0.2,0.5,0.2,0.6,0L14.7,29.3z M17.7,27.9c-1.5,0-2.8-1.3-2.8-2.8c0-1.5,1.3-2.8,2.8-2.8c1.5,0,2.8,1.3,2.8,2.8
			C20.5,26.6,19.2,27.9,17.7,27.9z M17.7,22.9c-1.2,0-2.1,1-2.1,2.1c0,1.2,1,2.1,2.1,2.1c1.2,0,2.1-1,2.1-2.1
			C19.8,23.9,18.9,22.9,17.7,22.9z"/>
	</g>
</g>
<g>
	<path class="st1" d="M49.6,47.7c0,0.9-0.8,1.7-1.8,1.7h-31c-1,0-1.8-0.8-1.8-1.7v-6.7c0-0.9,0.8-1.7,1.8-1.7h31
		c1,0,1.8,0.8,1.8,1.7V47.7z"/>
	<g>
		<path class="st0" d="M47.9,49.6h-31c-1.1,0-2-0.9-2-1.9v-6.7c0-1.1,0.9-1.9,2-1.9h31c1.1,0,2,0.9,2,1.9v6.7
			C49.9,48.7,49,49.6,47.9,49.6z M16.8,39.5c-0.8,0-1.5,0.6-1.5,1.4v6.7c0,0.8,0.7,1.4,1.5,1.4h31c0.8,0,1.5-0.6,1.5-1.4v-6.7
			c0-0.8-0.7-1.4-1.5-1.4H16.8z"/>
	</g>
	<g>
		<path class="st0" d="M36.5,40.9h-9.7c-0.1,0-0.3-0.1-0.3-0.3c0-0.1,0.1-0.3,0.3-0.3h9.7c0.1,0,0.3,0.1,0.3,0.3
			C36.8,40.8,36.6,40.9,36.5,40.9z"/>
	</g>
	<g>
		<path class="st0" d="M16.6,46c-0.1,0-0.3-0.1-0.3-0.3v-3.4c0-1.1,0.9-1.9,2-1.9h6.2c0.1,0,0.3,0.1,0.3,0.3c0,0.1-0.1,0.3-0.3,0.3
			h-6.2c-0.8,0-1.5,0.6-1.5,1.4v3.4C16.8,45.8,16.7,46,16.6,46z"/>
	</g>
	<g>
		<path class="st2" d="M27.8,44.6l3-1.4v0.6l-2.4,1.1v0l2.4,1.1v0.5l-3-1.4V44.6z"/>
		<path class="st2" d="M31.3,46.7l1.6-4.4h0.6l-1.6,4.4H31.3z"/>
		<path class="st2" d="M36.9,45.1l-3,1.4v-0.5l2.5-1.1v0l-2.5-1.1v-0.5l3,1.4V45.1z"/>
	</g>
</g>
<g>
	<path class="st0" d="M7.2,26.4v13c0,0.1-0.1,0.2-0.2,0.2s-0.2-0.1-0.2-0.2v-13c0-0.1,0.1-0.2,0.2-0.2S7.2,26.3,7.2,26.4z"/>
</g>
<g>
	<path class="st0" d="M7.2,42v3c0,0.2-0.1,0.3-0.2,0.3c-0.1,0-0.2-0.1-0.2-0.3v-3c0-0.2,0.1-0.3,0.2-0.3C7.1,41.7,7.2,41.8,7.2,42z"
		/>
</g>
<g>
	<path class="st0" d="M9.1,46.4h2.5c0.1,0,0.2,0.1,0.2,0.2s-0.1,0.2-0.2,0.2H9.1c-0.1,0-0.2-0.1-0.2-0.2S8.9,46.4,9.1,46.4z"/>
</g>
<g>
	<path class="st0" d="M46.9,37.2v-13c0-0.1,0.1-0.2,0.2-0.2c0.1,0,0.2,0.1,0.2,0.2v13c0,0.1-0.1,0.2-0.2,0.2
		C47,37.5,46.9,37.4,46.9,37.2z"/>
</g>
<g>
	<path class="st0" d="M46.9,21.9v-3.3c0-0.2,0.1-0.3,0.2-0.3c0.1,0,0.2,0.1,0.2,0.3v3.3c0,0.2-0.1,0.3-0.2,0.3
		C47,22.2,46.9,22.1,46.9,21.9z"/>
</g>
<g>
	<path class="st0" d="M45.6,17.2h-6.5c-0.4,0-0.6-0.1-0.6-0.2c0-0.1,0.3-0.2,0.6-0.2h6.5c0.4,0,0.6,0.1,0.6,0.2
		C46.3,17.1,46,17.2,45.6,17.2z"/>
</g>
</svg>
