<?xml version="1.0" encoding="utf-8"?>
<!-- Generator: Adobe Illustrator 20.1.0, SVG Export Plug-In . SVG Version: 6.00 Build 0)  -->
<svg version="1.1" id="Layer_1" xmlns="http://www.w3.org/2000/svg" xmlns:xlink="http://www.w3.org/1999/xlink" x="0px" y="0px"
	 viewBox="0 0 50.7 50.7" style="enable-background:new 0 0 50.7 50.7;" xml:space="preserve">
<style type="text/css">
	.st0{fill:#FFFFFF;}
	.st1{fill:#EAEAEA;}
	.st2{fill:#F4F4F4;}
	.st3{fill:#D6D6D6;}
	.st4{fill:#B7B7B7;}
	.st5{fill:#D6DADD;}
	.st6{fill:#414042;}
	.st7{fill:#58595B;}
	.st8{fill:#E5E5E5;}
	.st9{fill:#E6E7E8;}
	.st10{fill:#A0A0A0;}
</style>
<g>
	<g>
		<g>
			<path class="st0" d="M40.5,27.5h-3.9h-5.2h-5.2h-5.2H16h-3.9c-0.7,0-1.3,0.6-1.3,1.3v17.5H16h5.2h5.2h5.2h5.2h5.2V28.8
				C41.8,28.1,41.2,27.5,40.5,27.5z"/>
		</g>
	</g>
	<g>
		<g>
			<g>
				<polygon class="st1" points="36.6,33.8 31.5,38.7 26.3,38.7 21.1,35.6 16,38.8 10.8,40.7 10.8,47.5 16,47.5 21.1,47.5 
					26.3,47.5 31.5,47.5 36.6,47.5 41.8,47.5 41.8,33.2 				"/>
			</g>
		</g>
		<g>
			<g>
				<g>
					<polygon class="st2" points="10.9,40.8 10.8,40.5 15.9,38.6 21.1,35.5 26.3,38.6 31.4,38.6 36.5,33.6 36.6,33.6 41.8,33 
						41.8,33.3 36.7,33.9 31.5,38.9 26.2,38.9 21.1,35.8 16,38.9 					"/>
				</g>
			</g>
		</g>
		<g>
			<g>
				<g>
					<ellipse class="st3" cx="16" cy="38.8" rx="0.6" ry="0.6"/>
				</g>
			</g>
		</g>
		<g>
			<g>
				<g>
					<ellipse class="st3" cx="21.1" cy="35.7" rx="0.6" ry="0.6"/>
				</g>
			</g>
		</g>
		<g>
			<g>
				<g>
					<ellipse class="st3" cx="36.6" cy="33.8" rx="0.6" ry="0.6"/>
				</g>
			</g>
		</g>
		<g>
			<g>
				<g>
					<ellipse class="st3" cx="31.4" cy="38.8" rx="0.6" ry="0.6"/>
				</g>
			</g>
		</g>
		<g>
			<g>
				<g>
					<ellipse class="st3" cx="26.3" cy="38.8" rx="0.6" ry="0.6"/>
				</g>
			</g>
		</g>
	</g>
	<g>
		<g>
			<g>
				<path class="st4" d="M6.9,46.3c0,1.4,1.2,2.5,2.6,2.5c0,0,0,0,0,0v0H43c1.4,0,2.6-1.1,2.6-2.5H6.9z"/>
			</g>
		</g>
	</g>
	<g>
		<g>
			<g>
				<g>
					<path class="st5" d="M22.4,46.3c0,0.7,0.6,1.3,1.3,1.3v-1.3H22.4z"/>
				</g>
			</g>
		</g>
		<g>
			<g>
				<g>
					<path class="st5" d="M28.9,47.5c0.7,0,1.3-0.6,1.3-1.3h-1.3V47.5z"/>
				</g>
			</g>
		</g>
		<g>
			<g>
				<g>
					<path class="st5" d="M27.6,46.3H25c0,0.7-0.6,1.3-1.3,1.3h5.2C28.2,47.5,27.6,47,27.6,46.3z"/>
				</g>
			</g>
		</g>
		<g>
			<g>
				<g>
					<path class="st5" d="M25,46.3h-1.3v1.3C24.4,47.5,25,47,25,46.3z"/>
				</g>
			</g>
		</g>
		<g>
			<g>
				<g>
					<path class="st5" d="M27.6,46.3c0,0.7,0.6,1.3,1.3,1.3v-1.3H27.6z"/>
				</g>
			</g>
		</g>
	</g>
	<g>
		<g>
			<g>
				<path class="st6" d="M40.5,28.8L40.5,28.8L40.5,28.8V45H12.1V28.8H40.5L40.5,28.8z M40.5,27.5H12.1c-0.7,0-1.3,0.6-1.3,1.3v17.5
					h31V28.8C41.8,28.1,41.2,27.5,40.5,27.5L40.5,27.5z"/>
			</g>
		</g>
	</g>
	<g>
		<path class="st7" d="M21.8,32l3-1.4v0.5l-2.4,1v0l2.4,1v0.5l-3-1.4V32z"/>
		<path class="st7" d="M25.3,34.1l1.6-4.3h0.6l-1.6,4.3H25.3z"/>
		<path class="st7" d="M30.8,32.5l-3,1.4v-0.5l2.5-1v0l-2.5-1v-0.5l3,1.4V32.5z"/>
	</g>
</g>
<g>
	<path class="st3" d="M39.7,12V7.4l4.8-4c0.1-0.1,0.3-0.1,0.3,0l4.5,3.9V12H39.7z"/>
	<g>
		<path class="st6" d="M49.7,12h-10V7.3l4.8-4c0.1-0.1,0.4-0.1,0.6,0l4.6,4V12z M40,11.7h9.4V7.4l-4.5-3.9c0,0-0.2,0-0.2,0L40,7.4
			V11.7z"/>
	</g>
	<rect x="40.5" y="4.7" class="st0" width="8.3" height="7.7"/>
	<g>
		<path class="st6" d="M48.8,12.6h-8.5v-8h8.5V12.6z M40.5,12.3h8V5h-8V12.3z"/>
	</g>
	<polygon class="st3" points="49.4,12.9 39.7,12.9 39.7,7.6 40,7.6 49.4,12.8 	"/>
	<g>
		<polygon class="st6" points="49.4,12.9 39.7,12.9 39.7,7.3 40,7.3 40.1,7.3 48,11.9 47.9,12.1 40,7.6 40,12.6 49.4,12.6 		"/>
	</g>
	<polygon class="st8" points="49.3,12.8 49.4,12.9 49.4,7.6 49.3,7.6 44.7,10.2 	"/>
	<g>
		<path class="st6" d="M49.7,12.9h-0.5l-4.9-2.9l4.9-2.7h0.4V12.9z M49.3,12.6L49.3,12.6l0.1-5h0L45,10.1L49.3,12.6z"/>
	</g>
	<g>
		<path class="st6" d="M43.9,7.6c0,0.6,0.5,0.9,0.9,0.9c0.1,0,0.3,0,0.4-0.1l0.1,0.3c-0.2,0.1-0.4,0.1-0.6,0.1
			c-0.6,0-1.2-0.3-1.2-1.2c0-0.8,0.6-1.2,1.2-1.2c0.7,0,1.3,0.4,1.3,1.2c0,0.5-0.2,0.8-0.5,0.8c-0.1,0-0.3-0.1-0.3-0.3
			c-0.1,0.2-0.3,0.3-0.4,0.3C44.4,8.3,44,8,44,7.6c0-0.4,0.3-0.7,0.8-0.7c0.2,0,0.3,0.1,0.4,0.2l0-0.2l0.3,0v1c0,0,0,0.1,0.1,0.1
			c0.1,0,0.2-0.3,0.2-0.5c0-0.6-0.4-0.9-0.9-0.9C44.4,6.7,43.9,7,43.9,7.6z M44.4,7.6c0,0.2,0.1,0.4,0.4,0.4c0.3,0,0.4-0.2,0.4-0.4
			c0-0.2-0.1-0.4-0.4-0.4C44.5,7.2,44.4,7.4,44.4,7.6z"/>
	</g>
</g>
<g>
	<rect x="1.9" y="11.4" class="st0" width="13.1" height="10.8"/>
	<rect x="1.5" y="11.4" class="st3" width="13.1" height="2.6"/>
	<g>
		<path class="st6" d="M15,22.6H1.5V11.4H15V22.6z M1.9,22.2h12.8V11.8H1.9V22.2z"/>
	</g>
	<path class="st9" d="M5.8,12.3c0,0.4-0.5,0.7-1,0.7l0,0c-0.5,0-1-0.3-1-0.7V9.6c0-0.4,0.5-0.7,1-0.7l0,0c0.5,0,1,0.3,1,0.7V12.3z"
		/>
	<g>
		<path class="st6" d="M4.9,13.3H4.7c-0.5,0-0.9-0.4-0.9-0.9V10c0-0.5,0.4-0.9,0.9-0.9h0.2c0.5,0,0.9,0.4,0.9,0.9v2.4
			C5.8,12.9,5.4,13.3,4.9,13.3z M4.7,9.6c-0.3,0-0.5,0.2-0.5,0.5v2.4c0,0.3,0.2,0.5,0.5,0.5h0.2c0.3,0,0.5-0.2,0.5-0.5V10
			c0-0.3-0.2-0.5-0.5-0.5H4.7z"/>
	</g>
	<path class="st9" d="M12.7,12.3c0,0.4-0.5,0.7-1,0.7l0,0c-0.5,0-1-0.3-1-0.7V9.6c0-0.4,0.5-0.7,1-0.7l0,0c0.5,0,1,0.3,1,0.7V12.3z"
		/>
	<g>
		<path class="st6" d="M11.8,13.3h-0.2c-0.5,0-0.9-0.4-0.9-0.9V10c0-0.5,0.4-0.9,0.9-0.9h0.2c0.5,0,0.9,0.4,0.9,0.9v2.4
			C12.7,12.9,12.3,13.3,11.8,13.3z M11.7,9.6c-0.3,0-0.5,0.2-0.5,0.5v2.4c0,0.3,0.2,0.5,0.5,0.5h0.2c0.3,0,0.5-0.2,0.5-0.5V10
			c0-0.3-0.2-0.5-0.5-0.5H11.7z"/>
	</g>
	<g>
		<path class="st6" d="M7.3,17.4H5.8v-1.5h1.5V17.4z M6.1,17h0.8v-0.7H6.1V17z"/>
	</g>
	<g>
		<path class="st6" d="M9.2,17.4H7.7v-1.5h1.5V17.4z M8.1,17h0.8v-0.7H8.1V17z"/>
	</g>
	<g>
		<path class="st6" d="M11.2,17.4H9.6v-1.5h1.5V17.4z M10,17h0.8v-0.7H10V17z"/>
	</g>
	<g>
		<path class="st6" d="M13.1,17.4h-1.5v-1.5h1.5V17.4z M11.9,17h0.8v-0.7h-0.8V17z"/>
	</g>
	<g>
		<path class="st6" d="M5.4,19.3H3.8v-1.5h1.5V19.3z M4.2,18.9H5v-0.7H4.2V18.9z"/>
	</g>
	<g>
		<path class="st6" d="M7.3,19.3H5.8v-1.5h1.5V19.3z M6.1,18.9h0.8v-0.7H6.1V18.9z"/>
	</g>
	<g>
		<path class="st3" d="M9.2,19.3H7.7v-1.5h1.5V19.3z M8.1,18.9h0.8v-0.7H8.1V18.9z"/>
	</g>
	<g>
		<path class="st6" d="M11.2,19.3H9.6v-1.5h1.5V19.3z M10,18.9h0.8v-0.7H10V18.9z"/>
	</g>
	<g>
		<path class="st6" d="M13.1,19.3h-1.5v-1.5h1.5V19.3z M11.9,18.9h0.8v-0.7h-0.8V18.9z"/>
	</g>
	<g>
		<path class="st6" d="M5.4,21.1H3.8v-1.5h1.5V21.1z M4.2,20.7H5V20H4.2V20.7z"/>
	</g>
	<g>
		<path class="st6" d="M7.3,21.1H5.8v-1.5h1.5V21.1z M6.1,20.7h0.8V20H6.1V20.7z"/>
	</g>
	<g>
		<path class="st6" d="M9.2,21.1H7.7v-1.5h1.5V21.1z M8.1,20.7h0.8V20H8.1V20.7z"/>
	</g>
</g>
<g>
	<g>
		<path class="st4" d="M18.7,42.9h-3.6c-0.2,0-0.4,0.1-0.4,0.2s0.2,0.2,0.4,0.2h3.6c0.2,0,0.4-0.1,0.4-0.2S18.9,42.9,18.7,42.9z"/>
	</g>
	<g>
		<path class="st4" d="M20.3,38.3h-5c-0.2,0-0.4,0.1-0.4,0.2c0,0.1,0.2,0.2,0.4,0.2h5c0.2,0,0.4-0.1,0.4-0.2
			C20.7,38.4,20.5,38.3,20.3,38.3z"/>
	</g>
	<g>
		<path class="st4" d="M22.5,41.9h-6c-0.2,0-0.4,0.1-0.4,0.2c0,0.1,0.2,0.2,0.4,0.2h6c0.2,0,0.4-0.1,0.4-0.2
			C22.9,42,22.7,41.9,22.5,41.9z"/>
	</g>
	<g>
		<path class="st4" d="M20.7,37.2h-4.1c-0.2,0-0.4,0.1-0.4,0.2c0,0.1,0.2,0.2,0.4,0.2h4.1c0.2,0,0.4-0.1,0.4-0.2
			C21.1,37.3,20.9,37.2,20.7,37.2z"/>
	</g>
	<g>
		<path class="st4" d="M23.7,36.2h-5.6c-0.2,0-0.4,0.1-0.4,0.2s0.2,0.2,0.4,0.2h5.6c0.2,0,0.4-0.1,0.4-0.2S24,36.2,23.7,36.2z"/>
	</g>
	<g>
		<path class="st4" d="M20.9,35.3h-3.5c-0.2,0-0.4,0.1-0.4,0.2c0,0.1,0.2,0.2,0.4,0.2h3.5c0.2,0,0.4-0.1,0.4-0.2
			C21.3,35.4,21.1,35.3,20.9,35.3z"/>
	</g>
	<g>
		<path class="st4" d="M27.2,35.3h-4.7c-0.2,0-0.4,0.1-0.4,0.2c0,0.1,0.2,0.2,0.4,0.2h4.7c0.2,0,0.4-0.1,0.4-0.2
			C27.6,35.4,27.4,35.3,27.2,35.3z"/>
	</g>
	<g>
		<path class="st4" d="M37.7,35.3h-8.6c-0.2,0-0.4,0.1-0.4,0.2c0,0.1,0.2,0.2,0.4,0.2h8.6c0.2,0,0.4-0.1,0.4-0.2
			C38.2,35.4,38,35.3,37.7,35.3z"/>
	</g>
	<g>
		<path class="st4" d="M33.7,36.2h-8.6c-0.2,0-0.4,0.1-0.4,0.2s0.2,0.2,0.4,0.2h8.6c0.2,0,0.4-0.1,0.4-0.2S33.9,36.2,33.7,36.2z"/>
	</g>
	<g>
		<path class="st4" d="M29.1,37.2h-1.7c-0.2,0-0.4,0.1-0.4,0.2c0,0.1,0.2,0.2,0.4,0.2h1.7c0.2,0,0.4-0.1,0.4-0.2
			C29.5,37.3,29.3,37.2,29.1,37.2z"/>
	</g>
	<g>
		<path class="st4" d="M38,37.2h-7.5c-0.2,0-0.4,0.1-0.4,0.2c0,0.1,0.2,0.2,0.4,0.2H38c0.2,0,0.4-0.1,0.4-0.2
			C38.4,37.3,38.2,37.2,38,37.2z"/>
	</g>
	<g>
		<path class="st4" d="M26,37.2H22c-0.2,0-0.4,0.1-0.4,0.2c0,0.1,0.2,0.2,0.4,0.2H26c0.2,0,0.4-0.1,0.4-0.2
			C26.4,37.3,26.2,37.2,26,37.2z"/>
	</g>
	<g>
		<path class="st4" d="M20.9,41h-2.6c-0.2,0-0.4,0.1-0.4,0.2c0,0.1,0.2,0.2,0.4,0.2h2.6c0.2,0,0.4-0.1,0.4-0.2
			C21.3,41,21.1,41,20.9,41z"/>
	</g>
	<g>
		<path class="st4" d="M26.2,40h-9.7c-0.2,0-0.4,0.1-0.4,0.2s0.2,0.2,0.4,0.2h9.7c0.2,0,0.4-0.1,0.4-0.2S26.4,40,26.2,40z"/>
	</g>
	<g>
		<path class="st4" d="M34.6,40H28c-0.2,0-0.4,0.1-0.4,0.2s0.2,0.2,0.4,0.2h6.7c0.2,0,0.4-0.1,0.4-0.2S34.8,40,34.6,40z"/>
	</g>
	<g>
		<path class="st4" d="M36.9,41h-5.4c-0.2,0-0.4,0.1-0.4,0.2c0,0.1,0.2,0.2,0.4,0.2h5.4c0.2,0,0.4-0.1,0.4-0.2
			C37.3,41,37.1,41,36.9,41z"/>
	</g>
	<g>
		<path class="st4" d="M30,41h-7.7c-0.2,0-0.4,0.1-0.4,0.2c0,0.1,0.2,0.2,0.4,0.2H30c0.2,0,0.4-0.1,0.4-0.2C30.4,41,30.2,41,30,41z"
			/>
	</g>
	<g>
		<path class="st4" d="M38.1,41.9H27.6c-0.2,0-0.4,0.1-0.4,0.2c0,0.1,0.2,0.2,0.4,0.2h10.5c0.2,0,0.4-0.1,0.4-0.2
			C38.5,42,38.3,41.9,38.1,41.9z"/>
	</g>
	<g>
		<path class="st4" d="M26.2,41.9H24c-0.2,0-0.4,0.1-0.4,0.2c0,0.1,0.2,0.2,0.4,0.2h2.2c0.2,0,0.4-0.1,0.4-0.2
			C26.6,42,26.4,41.9,26.2,41.9z"/>
	</g>
</g>
<g>
	<path class="st10" d="M22.5,22.5l-3.6-0.1l0.8-0.8l-2.2-2.2l2-2l2.2,2.2l0.8-0.8L22.5,22.5z M19.8,22.1l2.3,0.1L22,19.8l-0.4,0.4
		L19.5,18L18,19.5l2.2,2.2L19.8,22.1z"/>
</g>
<g>
	<path class="st4" d="M42.2,14.7L42,18.3l-0.8-0.8l-2.2,2.2l-2-2l2.2-2.2l-0.8-0.8L42.2,14.7z M41.7,17.5l0.1-2.3l-2.3,0.1l0.4,0.4
		l-2.2,2.2l1.4,1.4l2.2-2.2L41.7,17.5z"/>
</g>
</svg>
