<?xml version="1.0" encoding="utf-8"?>
<!-- Generator: Adobe Illustrator 20.1.0, SVG Export Plug-In . SVG Version: 6.00 Build 0)  -->
<svg version="1.1" id="Layer_1" xmlns="http://www.w3.org/2000/svg" xmlns:xlink="http://www.w3.org/1999/xlink" x="0px" y="0px"
	 viewBox="0 0 50.7 50.7" style="enable-background:new 0 0 50.7 50.7;" xml:space="preserve">
<style type="text/css">
	.st0{fill:#414042;}
	.st1{fill:#FFFFFF;}
	.st2{fill:#F1F2F2;}
	.st3{fill:#D1D1D1;}
	.st4{fill:#AFAFAF;}
	.st5{fill:#E5E5E5;}
	.st6{fill:#D6D6D6;}
	.st7{fill:#B7B7B7;}
</style>
<g>
	<g>
		<polygon class="st0" points="13.6,43.1 9.2,43.1 9.2,41 9.7,41 9.7,42.6 13,42.6 13,41.2 13.6,41.2 		"/>
	</g>
	<g>
		<path class="st0" d="M14.5,37.7H14v-1.5l0.2-0.1c2.4-1.1,3.9-3.5,3.9-6.1c0-3.7-3-6.7-6.7-6.7c-3.7,0-6.7,3-6.7,6.7
			c0,2.6,1.5,5,3.9,6.1l0.2,0.1v1.5H8.2v-1.1c-2.5-1.2-4.1-3.7-4.1-6.5c0-4,3.2-7.2,7.2-7.2c4,0,7.2,3.2,7.2,7.2
			c0,2.7-1.6,5.3-4.1,6.5V37.7z"/>
	</g>
	<g>
		<path class="st0" d="M14.6,41.3H8.2v-3.9h6.3V41.3z M8.7,40.7H14v-2.8H8.7V40.7z"/>
	</g>
	<g>
		<rect x="11.1" y="38.5" class="st0" width="3.2" height="0.5"/>
	</g>
	<g>
		<rect x="8.4" y="39.6" class="st0" width="3.2" height="0.5"/>
	</g>
	<g>
		<path class="st0" d="M6.3,28.8C6.3,28.8,6.3,28.8,6.3,28.8c-0.2-0.1-0.3-0.2-0.3-0.3c0.5-1.6,1.7-3,3.3-3.6c0.1-0.1,0.3,0,0.3,0.2
			c0.1,0.1,0,0.3-0.2,0.3c-1.4,0.5-2.6,1.8-3,3.2C6.6,28.7,6.5,28.8,6.3,28.8z"/>
	</g>
</g>
<g>
	<g>
		<path class="st1" d="M41,8l-7.4,7.4c-0.3,0.3-0.3,0.7-0.1,1L32.9,17c-0.1,0.1-0.1,0.3,0,0.4l0.5,0.5c0.1,0.1,0.3,0.1,0.4,0
			l0.6-0.6c0.3,0.2,0.7,0.2,1-0.1l7.4-7.4c0.3-0.3,0.3-0.8,0-1L42,8C41.7,7.7,41.3,7.7,41,8z"/>
		<path class="st2" d="M33.2,17.7l0.3,0.3c0.1,0.1,0.3,0.1,0.4,0l0.6-0.6c0.3,0.2,0.7,0.2,1-0.1l7.4-7.4c0.3-0.3,0.3-0.8,0-1
			l-0.4-0.4L33.2,17.7z"/>
		<g>
			<path class="st0" d="M33.6,18.2c-0.1,0-0.2,0-0.3-0.1l-0.5-0.5c-0.2-0.2-0.2-0.5,0-0.7l0.5-0.5c-0.2-0.3-0.1-0.8,0.2-1.1l7.4-7.4
				c0.3-0.3,0.9-0.3,1.3,0L43,8.7c0.4,0.4,0.4,0.9,0,1.3l-7.4,7.4c-0.2,0.2-0.4,0.3-0.6,0.3l0,0c-0.2,0-0.3,0-0.4-0.1L34,18.1
				C33.9,18.2,33.7,18.2,33.6,18.2z M41.5,8c-0.1,0-0.3,0.1-0.4,0.2l-7.4,7.4c-0.2,0.2-0.2,0.5,0,0.7l0.1,0.1L33,17.1
				c0,0,0,0.1,0,0.2l0.5,0.5c0,0,0.1,0,0.2,0l0.7-0.7l0.1,0.1c0.2,0.2,0.5,0.2,0.7,0l7.4-7.4c0.2-0.2,0.2-0.6,0-0.8l-0.8-0.8
				C41.8,8,41.6,8,41.5,8z"/>
		</g>
		<path class="st3" d="M42.1,10.7l2.3-2.3c0.5-0.5,0.5-1.4,0-2l0,0c-0.5-0.5-1.4-0.5-2,0l-2.3,2.3L42.1,10.7z"/>
		<path class="st4" d="M42.1,10.7l2.3-2.3c0.5-0.5,0.5-1.4,0-2l-3.3,3.3L42.1,10.7z"/>
		<g>
			<path class="st0" d="M42.1,11l-2.2-2.2l2.4-2.4C42.6,6,43,5.9,43.4,5.9c0.4,0,0.8,0.2,1.1,0.5c0.6,0.6,0.6,1.6,0,2.2L42.1,11z
				 M40.4,8.8l1.7,1.7l2.2-2.2c0.5-0.5,0.5-1.3,0-1.7c-0.5-0.5-1.3-0.5-1.7,0L40.4,8.8z"/>
		</g>
		<path class="st1" d="M43.3,11.2c0.2,0.2,0.2,0.6,0,0.8l0,0c-0.2,0.2-0.6,0.2-0.8,0l-3.7-3.7c-0.2-0.2-0.2-0.6,0-0.8l0,0
			c0.2-0.2,0.6-0.2,0.8,0L43.3,11.2z"/>
		<g>
			<path class="st0" d="M42.9,12.3c-0.2,0-0.4-0.1-0.5-0.2l-3.7-3.7c-0.1-0.1-0.2-0.3-0.2-0.5c0-0.2,0.1-0.4,0.2-0.5
				c0.3-0.3,0.8-0.3,1,0l3.7,3.7c0.3,0.3,0.3,0.7,0,1C43.3,12.3,43.1,12.3,42.9,12.3z M39.2,7.5c-0.1,0-0.2,0-0.3,0.1
				c-0.1,0.1-0.1,0.2-0.1,0.3c0,0.1,0,0.2,0.1,0.3l3.7,3.7c0.1,0.1,0.4,0.1,0.5,0c0.1-0.1,0.1-0.4,0-0.5l-3.7-3.7
				C39.4,7.6,39.3,7.5,39.2,7.5z"/>
		</g>
	</g>
	<path class="st5" d="M34.6,21.9c0,1-0.8,1.8-1.8,1.8c-1,0-1.8-0.8-1.8-1.8c0-1,1.9-3.6,1.9-3.6S34.6,20.9,34.6,21.9z"/>
	<g>
		<path class="st0" d="M32.8,23.9c-1.1,0-2-0.9-2-2c0-1,1.9-3.6,2-3.7l0.2-0.2l0.1,0.2c0.1,0.1,1.7,2.7,1.7,3.7
			C34.8,23,33.9,23.9,32.8,23.9z M32.9,18.6c-0.6,0.8-1.7,2.6-1.7,3.3c0,0.9,0.7,1.6,1.6,1.6c0.9,0,1.6-0.7,1.6-1.6
			C34.4,21.2,33.4,19.4,32.9,18.6z"/>
	</g>
	<g>
		<path class="st0" d="M32.9,23.2c-0.1,0-0.1,0-0.2-0.1c0-0.1,0-0.2,0.1-0.2c0.5-0.2,0.8-0.5,1-0.9c0-0.1,0.1-0.1,0.2-0.1
			c0.1,0,0.1,0.1,0.1,0.2C33.9,22.6,33.5,23.1,32.9,23.2C32.9,23.2,32.9,23.2,32.9,23.2z"/>
	</g>
</g>
<g>
	<path class="st6" d="M27.7,44.9c0,0.4-0.3,0.7-0.7,0.7h-4.5c-0.4,0-0.7-0.3-0.7-0.7v-4.5c0-0.4,0.3-0.7,0.7-0.7H27
		c0.4,0,0.7,0.3,0.7,0.7V44.9z"/>
	<path class="st1" d="M35,44.9c0,0.4-0.3,0.7-0.7,0.7h-4.5c-0.4,0-0.7-0.3-0.7-0.7v-4.5c0-0.4,0.3-0.7,0.7-0.7h4.5
		c0.4,0,0.7,0.3,0.7,0.7V44.9z"/>
	<path class="st5" d="M42.2,44.9c0,0.4-0.3,0.7-0.7,0.7h-4.5c-0.4,0-0.7-0.3-0.7-0.7v-4.5c0-0.4,0.3-0.7,0.7-0.7h4.5
		c0.4,0,0.7,0.3,0.7,0.7V44.9z"/>
	<g>
		<path class="st0" d="M27,45.8h-4.5c-0.5,0-0.9-0.4-0.9-0.9v-4.5c0-0.5,0.4-0.9,0.9-0.9H27c0.5,0,0.9,0.4,0.9,0.9v4.5
			C28,45.4,27.5,45.8,27,45.8z M22.6,40c-0.2,0-0.4,0.2-0.4,0.4v4.5c0,0.2,0.2,0.4,0.4,0.4H27c0.2,0,0.4-0.2,0.4-0.4v-4.5
			c0-0.2-0.2-0.4-0.4-0.4H22.6z"/>
	</g>
	<g>
		<path class="st0" d="M34.3,45.8h-4.5c-0.5,0-0.9-0.4-0.9-0.9v-4.5c0-0.5,0.4-0.9,0.9-0.9h4.5c0.5,0,0.9,0.4,0.9,0.9v4.5
			C35.2,45.4,34.8,45.8,34.3,45.8z M29.8,40c-0.2,0-0.4,0.2-0.4,0.4v4.5c0,0.2,0.2,0.4,0.4,0.4h4.5c0.2,0,0.4-0.2,0.4-0.4v-4.5
			c0-0.2-0.2-0.4-0.4-0.4H29.8z"/>
	</g>
	<g>
		<path class="st0" d="M41.6,45.8h-4.5c-0.5,0-0.9-0.4-0.9-0.9v-4.5c0-0.5,0.4-0.9,0.9-0.9h4.5c0.5,0,0.9,0.4,0.9,0.9v4.5
			C42.5,45.4,42.1,45.8,41.6,45.8z M37.1,40c-0.2,0-0.4,0.2-0.4,0.4v4.5c0,0.2,0.2,0.4,0.4,0.4h4.5c0.2,0,0.4-0.2,0.4-0.4v-4.5
			c0-0.2-0.2-0.4-0.4-0.4H37.1z"/>
	</g>
	<g>
		<path class="st0" d="M26.5,44.3c-0.1,0-0.3-0.1-0.3-0.3v-2.9c0-0.1,0.1-0.3,0.3-0.3c0.1,0,0.3,0.1,0.3,0.3v2.9
			C26.8,44.2,26.7,44.3,26.5,44.3z"/>
	</g>
	<g>
		<path class="st0" d="M33.8,44.3c-0.1,0-0.3-0.1-0.3-0.3v-2.9c0-0.1,0.1-0.3,0.3-0.3c0.1,0,0.3,0.1,0.3,0.3v2.9
			C34.1,44.2,34,44.3,33.8,44.3z"/>
	</g>
	<g>
		<path class="st0" d="M41.1,44.3c-0.1,0-0.3-0.1-0.3-0.3v-2.9c0-0.1,0.1-0.3,0.3-0.3c0.1,0,0.3,0.1,0.3,0.3v2.9
			C41.4,44.2,41.2,44.3,41.1,44.3z"/>
	</g>
</g>
<g>
	<g>
		<path class="st7" d="M8.4,15.6L5,19c-0.2,0.2-0.5,0.2-0.6,0c-0.2-0.2-0.2-0.5,0-0.6L7.8,15c0.2-0.2,0.5-0.2,0.6,0
			C8.6,15.1,8.6,15.4,8.4,15.6z"/>
	</g>
	<g>
		<path class="st7" d="M8.4,19c-0.2,0.2-0.5,0.2-0.6,0l-3.4-3.4c-0.2-0.2-0.2-0.5,0-0.6c0.2-0.2,0.5-0.2,0.6,0l3.4,3.4
			C8.6,18.6,8.6,18.9,8.4,19z"/>
	</g>
</g>
<g>
	<path class="st5" d="M26.3,10.7c-1,0-1.9-0.9-1.9-1.9s0.9-1.9,1.9-1.9c1,0,1.9,0.9,1.9,1.9S27.3,10.7,26.3,10.7z M26.3,7.7
		c-0.6,0-1.1,0.5-1.1,1.1s0.5,1.1,1.1,1.1c0.6,0,1.1-0.5,1.1-1.1S26.9,7.7,26.3,7.7z"/>
</g>
<g>
	<path class="st0" d="M24.2,28l-1.5-1.4c-0.2-0.2-0.2-0.5,0-0.7c0.2-0.2,0.5-0.2,0.7,0l0.7,0.6l2.8-3.5c0.2-0.2,0.5-0.3,0.7-0.1
		c0.2,0.2,0.3,0.5,0.1,0.7L24.2,28z"/>
</g>
<g>
	<path class="st7" d="M24.2,28l-1.5-1.4c-0.2-0.2-0.2-0.5,0-0.7c0.2-0.2,0.5-0.2,0.7,0l0.7,0.6l2.8-3.5c0.2-0.2,0.5-0.3,0.7-0.1
		c0.2,0.2,0.3,0.5,0.1,0.7L24.2,28z"/>
</g>
<g>
	<path class="st5" d="M43.9,33.9c-1.3,0-2.4-1.1-2.4-2.4s1.1-2.4,2.4-2.4c1.3,0,2.4,1.1,2.4,2.4S45.2,33.9,43.9,33.9z M43.9,30.1
		c-0.8,0-1.4,0.6-1.4,1.4s0.6,1.4,1.4,1.4c0.8,0,1.4-0.6,1.4-1.4S44.7,30.1,43.9,30.1z"/>
</g>
</svg>
