<?xml version="1.0" encoding="utf-8"?>
<!-- Generator: Adobe Illustrator 20.1.0, SVG Export Plug-In . SVG Version: 6.00 Build 0)  -->
<svg version="1.1" id="Layer_1" xmlns="http://www.w3.org/2000/svg" xmlns:xlink="http://www.w3.org/1999/xlink" x="0px" y="0px"
	 viewBox="0 0 26.3 26.3" style="enable-background:new 0 0 26.3 26.3;" xml:space="preserve">
<style type="text/css">
	.st0{fill:#414042;}
	.st1{fill:#FFFFFF;}
	.st2{fill:#D3D3D3;}
</style>
<g>
	<g>
		<path class="st0" d="M6.9,18c-0.6,0-1.2,0-1.5-0.1c-2.1-0.6-3.3-3.1-3.3-5.1c0-0.2,0-0.4,0-0.6c0-0.1,0-0.2,0-0.3
			c0-0.1,0-0.1,0-0.2l0-0.1c0-0.1,0-0.2,0.1-0.2c0-0.1,0-0.1,0.1-0.2c0-0.1,0.1-0.2,0.1-0.2c0-0.1,0.1-0.1,0.1-0.2
			c0-0.1,0.1-0.1,0.1-0.2c0-0.1,0.1-0.1,0.1-0.2c0-0.1,0.1-0.1,0.1-0.2C3,10.1,3,10,3,10c0-0.1,0.1-0.1,0.1-0.2l0,0
			c0,0,0.1-0.1,0.1-0.1c0.1-0.1,0.1-0.1,0.2-0.2c0.1-0.1,0.2-0.2,0.2-0.2C3.8,9.1,3.9,9.1,3.9,9C3.9,9,4,8.9,4,8.9l0.1,0
			c0.1-0.1,0.1-0.1,0.2-0.1c0.1,0,0.1-0.1,0.2-0.1c0.1-0.1,0.2-0.1,0.2-0.1c0.1,0,0.1-0.1,0.2-0.1C4.9,8.4,5,8.3,5,8.3
			c0.1,0,0.1-0.1,0.2-0.1c0.1,0,0.1-0.1,0.2-0.1c0.1,0,0.1-0.1,0.2-0.1c0.1,0,0.1,0,0.2,0l0.1,0.2l0-0.3C6,8,6,8,6.1,8
			c0.1,0,0.1,0,0.2,0c0.1,0,0.3,0,0.4,0C7,5.4,9.2,3.4,11.7,3.4c0.2,0,0.4,0,0.6,0c0,0,0.1,0,0.1,0l0.1,0c0.1,0,0.3,0,0.4,0.1
			c0.1,0,0.1,0,0.2,0c0.1,0,0.3,0.1,0.4,0.1l0.2,0.1C13.8,3.9,14,3.9,14.1,4c0.2,0.1,0.4,0.2,0.5,0.3l0,0c0.2,0.1,0.3,0.2,0.4,0.3
			l0.1,0.1c0.1,0.1,0.2,0.2,0.3,0.3l0.1,0.1c0.1,0.1,0.2,0.3,0.3,0.4c0.4,0.6,0.7,1.2,0.8,1.9c1.5,0.1,2.8,1,3.3,2.4
			c0.3,0,0.6,0.1,0.9,0.1c0.2,0.1,0.4,0.1,0.6,0.2c0.2,0.1,0.4,0.2,0.6,0.3c0.4,0.3,0.7,0.6,0.9,0.9c0.1,0.2,0.2,0.4,0.3,0.6
			c0.1,0.2,0.2,0.4,0.2,0.6c0.1,0.3,0.1,0.7,0.1,1.1c0,2-1.3,4.2-3.4,4.2h-0.7v-0.5h0.7c1.8,0,2.9-1.8,2.9-3.6c0-0.3,0-0.6-0.1-0.9
			c-0.1-0.2-0.1-0.4-0.2-0.5c-0.1-0.2-0.2-0.4-0.3-0.5c-0.2-0.3-0.5-0.6-0.8-0.8c-0.1-0.1-0.3-0.2-0.5-0.3c-0.2-0.1-0.4-0.2-0.5-0.2
			c-0.3-0.1-0.6-0.1-0.9-0.1l-0.3,0l-0.1-0.2C19.2,9,18,8.1,16.5,8.1l-0.2,0l0-0.2c-0.1-0.7-0.4-1.3-0.8-1.9
			c-0.1-0.1-0.2-0.3-0.3-0.4l0,0c-0.1-0.1-0.2-0.2-0.3-0.3l-0.1-0.1c-0.1-0.1-0.2-0.2-0.3-0.3l0.1-0.3l-0.2,0.2
			c-0.1-0.1-0.3-0.2-0.4-0.3c-0.2-0.1-0.3-0.2-0.5-0.2l-0.1-0.1c-0.1,0-0.2-0.1-0.3-0.1c-0.1,0-0.1,0-0.2,0c-0.1,0-0.2,0-0.4-0.1
			l-0.2,0c-0.2,0-0.4,0-0.5,0C9.4,4,7.4,5.8,7.1,8.2l0,0.2l-0.2,0c-0.2,0-0.3,0-0.5,0c-0.1,0-0.1,0-0.2,0c-0.1,0-0.1,0-0.2,0l-0.1,0
			c0,0-0.1,0-0.1,0c-0.1,0-0.1,0-0.2,0.1c-0.1,0-0.1,0-0.2,0.1c-0.1,0-0.1,0.1-0.2,0.1c-0.1,0-0.1,0.1-0.2,0.1C5,8.9,5,8.9,4.9,9
			C4.8,9,4.8,9,4.7,9.1C4.7,9.1,4.6,9.1,4.6,9.2c0,0-0.1,0.1-0.1,0.1L4.3,9.3c0,0-0.1,0-0.1,0.1c-0.1,0-0.1,0.1-0.2,0.1
			C4,9.6,3.9,9.7,3.9,9.8C3.8,9.8,3.8,9.9,3.7,9.9c0,0-0.1,0.1-0.1,0.1l0,0c0,0.1-0.1,0.1-0.1,0.2c0,0-0.1,0.1-0.1,0.1
			c0,0.1-0.1,0.1-0.1,0.2c0,0.1-0.1,0.1-0.1,0.2c0,0.1-0.1,0.1-0.1,0.2C3.1,11,3,11.1,3,11.1c0,0.1,0,0.1-0.1,0.2
			c0,0.1-0.1,0.1-0.1,0.2c0,0.1,0,0.1,0,0.2l0,0.1c0,0,0,0.1,0,0.1c0,0.1,0,0.2,0,0.3c0,0.2,0,0.4,0,0.6c0,1.8,1,4.1,2.9,4.6
			c0.1,0,0.4,0.1,1.3,0.1h0L6.9,18L6.9,18C7,18,6.9,18,6.9,18z"/>
	</g>
	<g>
		<path class="st0" d="M15.5,11c-0.1,0-0.1,0-0.2-0.1c-0.1-0.1-0.1-0.3,0-0.4c0.6-0.8,1-1.8,1-2.9c0-0.1,0.1-0.3,0.3-0.3
			c0.1,0,0.3,0.1,0.3,0.3c0,1.2-0.4,2.3-1.1,3.2C15.7,10.9,15.6,11,15.5,11z"/>
	</g>
	<g>
		<path class="st0" d="M17.9,11.4c-0.1,0-0.1,0-0.2-0.1c-0.1-0.1-0.1-0.3,0-0.4c0.7-0.6,1.5-0.9,2.4-0.9c0.1,0,0.3,0.1,0.3,0.3
			s-0.1,0.3-0.3,0.3c-0.8,0-1.5,0.3-2.1,0.8C18.1,11.4,18,11.4,17.9,11.4z"/>
	</g>
	<g>
		<path class="st0" d="M12.3,22.9l-0.6,0c-0.4,0-0.7-0.3-0.7-0.7l0-0.6c-0.3-0.1-0.6-0.2-0.9-0.4l-0.4,0.4c-0.3,0.3-0.7,0.3-1,0
			l-0.4-0.4c-0.1-0.1-0.2-0.3-0.2-0.5c0-0.2,0.1-0.4,0.2-0.5l0.4-0.4c-0.2-0.3-0.3-0.6-0.4-0.9l-0.6,0c-0.2,0-0.4-0.1-0.5-0.2
			c-0.1-0.1-0.2-0.3-0.2-0.5l0-0.6c0-0.4,0.3-0.7,0.7-0.7l0.6,0c0.1-0.3,0.2-0.6,0.4-0.8l-0.4-0.4c-0.3-0.3-0.3-0.7,0-1l0.4-0.4
			c0.3-0.3,0.7-0.3,1,0l0.4,0.4c0.3-0.1,0.5-0.3,0.8-0.3v-0.6c0-0.4,0.3-0.7,0.7-0.7h0.6c0.4,0,0.7,0.3,0.7,0.7v0.6
			c0.3,0.1,0.6,0.2,0.9,0.4l0.4-0.4c0.3-0.3,0.7-0.3,1,0l0.4,0.4c0.1,0.1,0.2,0.3,0.2,0.5c0,0.2-0.1,0.4-0.2,0.5l-0.4,0.4
			c0.2,0.3,0.3,0.6,0.4,0.9l0.6,0c0.4,0,0.7,0.3,0.7,0.7l0,0.6c0,0.4-0.3,0.7-0.7,0.7l0,0l-0.6,0c-0.1,0.3-0.2,0.6-0.4,0.9l0.4,0.4
			c0.1,0.1,0.2,0.3,0.2,0.5c0,0.2-0.1,0.4-0.2,0.5l-0.4,0.4c-0.3,0.3-0.7,0.3-1,0l-0.4-0.4c-0.3,0.2-0.6,0.3-0.9,0.4l0,0.6
			C13,22.6,12.7,22.9,12.3,22.9z"/>
		<path class="st1" d="M10.1,20.7l0.1,0.1c0.3,0.2,0.7,0.3,1,0.4l0.2,0l0,0.9c0,0.2,0.1,0.3,0.3,0.3l0.6,0l0,0.2v-0.2
			c0.2,0,0.3-0.1,0.3-0.3l0-0.9l0.2,0c0.4-0.1,0.7-0.2,1-0.4l0.1-0.1l0.7,0.7c0.1,0.1,0.3,0.1,0.4,0l0.4-0.4
			c0.1-0.1,0.1-0.1,0.1-0.2c0-0.1,0-0.1-0.1-0.2l-0.7-0.7l0.1-0.1c0.2-0.3,0.3-0.7,0.4-1l0-0.2l0.9,0c0.2,0,0.3-0.1,0.3-0.3l0-0.6
			c0-0.2-0.1-0.3-0.3-0.3l-0.9,0l0-0.2c-0.1-0.4-0.2-0.7-0.4-1l-0.1-0.1l0.7-0.7c0.1-0.1,0.1-0.1,0.1-0.2c0-0.1,0-0.1-0.1-0.2
			L15,14.7c-0.1-0.1-0.3-0.1-0.4,0l-0.7,0.7l-0.1-0.1c-0.3-0.2-0.7-0.3-1-0.4l-0.2,0v-0.9c0-0.2-0.1-0.3-0.3-0.3h-0.6
			c-0.2,0-0.3,0.1-0.3,0.3v0.9l-0.2,0c-0.4,0.1-0.7,0.2-1,0.4l-0.1,0.1l-0.7-0.7c-0.1-0.1-0.3-0.1-0.4,0l-0.4,0.4
			c-0.1,0.1-0.1,0.3,0,0.4l0.7,0.7l-0.1,0.1c-0.2,0.3-0.3,0.7-0.4,1l0,0.2l-0.9,0c-0.2,0-0.3,0.1-0.3,0.3l0,0.6c0,0.1,0,0.1,0.1,0.2
			c0.1,0.1,0.1,0.1,0.2,0.1l0.9,0l0,0.2c0.1,0.4,0.2,0.7,0.4,1l0.1,0.1l-0.7,0.7c-0.1,0.1-0.1,0.1-0.1,0.2c0,0.1,0,0.1,0.1,0.2
			l0.4,0.4c0.1,0.1,0.3,0.1,0.4,0L10.1,20.7z"/>
		<circle class="st0" cx="12" cy="18" r="1.8"/>
		<circle class="st2" cx="12" cy="18" r="1.3"/>
	</g>
</g>
</svg>
