<?xml version="1.0" encoding="utf-8"?>
<!-- Generator: Adobe Illustrator 20.1.0, SVG Export Plug-In . SVG Version: 6.00 Build 0)  -->
<svg version="1.1" id="Layer_1" xmlns="http://www.w3.org/2000/svg" xmlns:xlink="http://www.w3.org/1999/xlink" x="0px" y="0px"
	 viewBox="0 0 26.3 26.3" style="enable-background:new 0 0 26.3 26.3;" xml:space="preserve">
<style type="text/css">
	.st0{fill:#FFFFFF;}
	.st1{fill:#EAEAEA;}
	.st2{fill:#F4F4F4;}
	.st3{fill:#D6D6D6;}
	.st4{fill:#B7B7B7;}
	.st5{fill:#D6DADD;}
	.st6{fill:#545354;}
	.st7{fill:#58595B;}
</style>
<g>
	<g>
		<g>
			<path class="st0" d="M21.6,7.3h-2.3h-3.1h-3.1h-3.1H7.1H4.8c-0.4,0-0.8,0.3-0.8,0.7v10.4h3.1h3.1h3.1h3.1h3.1h3.1V8.1
				C22.4,7.6,22.1,7.3,21.6,7.3z"/>
		</g>
	</g>
	<g>
		<g>
			<g>
				<polygon class="st1" points="19.3,11 16.3,14 13.2,14 10.2,12.1 7.1,14 4.1,15.1 4.1,19.2 7.1,19.2 10.2,19.2 13.2,19.2 
					16.3,19.2 19.3,19.2 22.4,19.2 22.4,10.7 				"/>
			</g>
		</g>
		<g>
			<g>
				<g>
					<polygon class="st2" points="4.1,15.2 4,15 7.1,13.9 10.2,12 13.2,13.9 16.2,13.9 19.3,10.9 19.3,10.9 22.4,10.6 22.4,10.7 
						19.4,11.1 16.3,14.1 13.2,14.1 10.2,12.2 7.2,14.1 					"/>
				</g>
			</g>
		</g>
		<g>
			<g>
				<g>
					<ellipse class="st3" cx="7.1" cy="14" rx="0.4" ry="0.4"/>
				</g>
			</g>
		</g>
		<g>
			<g>
				<g>
					<ellipse class="st3" cx="10.2" cy="12.1" rx="0.4" ry="0.4"/>
				</g>
			</g>
		</g>
		<g>
			<g>
				<g>
					<ellipse class="st3" cx="19.3" cy="11" rx="0.4" ry="0.4"/>
				</g>
			</g>
		</g>
		<g>
			<g>
				<g>
					<ellipse class="st3" cx="16.3" cy="14" rx="0.4" ry="0.4"/>
				</g>
			</g>
		</g>
		<g>
			<g>
				<g>
					<ellipse class="st3" cx="13.2" cy="14" rx="0.4" ry="0.4"/>
				</g>
			</g>
		</g>
	</g>
	<g>
		<g>
			<g>
				<path class="st4" d="M1.8,18.4c0,0.8,0.7,1.5,1.5,1.5c0,0,0,0,0,0v0h19.8c0.8,0,1.5-0.7,1.5-1.5H1.8z"/>
			</g>
		</g>
	</g>
	<g>
		<g>
			<g>
				<g>
					<path class="st5" d="M10.9,18.4c0,0.4,0.3,0.7,0.8,0.7v-0.7H10.9z"/>
				</g>
			</g>
		</g>
		<g>
			<g>
				<g>
					<path class="st5" d="M14.8,19.2c0.4,0,0.8-0.3,0.8-0.7h-0.8V19.2z"/>
				</g>
			</g>
		</g>
		<g>
			<g>
				<g>
					<path class="st5" d="M14,18.4h-1.5c0,0.4-0.3,0.7-0.8,0.7h3.1C14.3,19.2,14,18.8,14,18.4z"/>
				</g>
			</g>
		</g>
		<g>
			<g>
				<g>
					<path class="st5" d="M12.5,18.4h-0.8v0.7C12.1,19.2,12.5,18.8,12.5,18.4z"/>
				</g>
			</g>
		</g>
		<g>
			<g>
				<g>
					<path class="st5" d="M14,18.4c0,0.4,0.3,0.7,0.8,0.7v-0.7H14z"/>
				</g>
			</g>
		</g>
	</g>
	<g>
		<g>
			<g>
				<path class="st6" d="M22.1,8.2V18H4.4V8c0,0,0-0.3,0.3-0.3c0.3,0,14.1,0,16.8,0C21.9,7.7,22.1,8.2,22.1,8.2z M21.6,7.3H4.8
					c-0.4,0-0.8,0.3-0.8,0.7v10.4h18.3V8.1C22.4,7.6,22.1,7.3,21.6,7.3L21.6,7.3z"/>
			</g>
		</g>
	</g>
	<g>
		<path class="st7" d="M9.7,10.8l2.5-1.1v0.4l-2,0.9v0l2,0.9v0.4l-2.5-1.1V10.8z"/>
		<path class="st7" d="M12.6,12.5l1.3-3.6h0.5l-1.3,3.6H12.6z"/>
		<path class="st7" d="M17.2,11.2l-2.5,1.1v-0.4l2-0.9v0l-2-0.9V9.7l2.5,1.1V11.2z"/>
	</g>
</g>
</svg>
