<?xml version="1.0" encoding="utf-8"?>
<!-- Generator: Adobe Illustrator 20.1.0, SVG Export Plug-In . SVG Version: 6.00 Build 0)  -->
<svg version="1.1" id="Layer_1" xmlns="http://www.w3.org/2000/svg" xmlns:xlink="http://www.w3.org/1999/xlink" x="0px" y="0px"
	 viewBox="0 0 26.3 26.3" style="enable-background:new 0 0 26.3 26.3;" xml:space="preserve">
<style type="text/css">
	.st0{fill:#FFFFFF;}
	.st1{fill:#F1F2F2;}
	.st2{fill:#414042;}
	.st3{fill:#D1D1D1;}
	.st4{fill:#AFAFAF;}
	.st5{fill:#E5E5E5;}
	.st6{fill:#D6D6D6;}
</style>
<g>
	<g>
		<g>
			<path class="st0" d="M19,5.7l-5,5c-0.2,0.2-0.2,0.5,0,0.7l-0.4,0.4c-0.1,0.1-0.1,0.2,0,0.3l0.4,0.4c0.1,0.1,0.2,0.1,0.3,0
				l0.4-0.4c0.2,0.2,0.5,0.1,0.7,0l5-5c0.2-0.2,0.2-0.5,0-0.7l-0.6-0.6C19.5,5.5,19.2,5.5,19,5.7z"/>
			<path class="st1" d="M13.7,12.3l0.2,0.2c0.1,0.1,0.2,0.1,0.3,0l0.4-0.4c0.2,0.2,0.5,0.1,0.7,0l5-5c0.2-0.2,0.2-0.5,0-0.7L20,6
				L13.7,12.3z"/>
			<g>
				<path class="st2" d="M14,12.6c-0.1,0-0.2,0-0.2-0.1l-0.4-0.4c-0.1-0.1-0.1-0.3,0-0.4l0.3-0.3c-0.1-0.2-0.1-0.5,0.1-0.7l5-5
					c0.2-0.2,0.6-0.2,0.9,0l0.6,0.6c0.2,0.2,0.2,0.6,0,0.9l-5,5c-0.1,0.1-0.3,0.2-0.4,0.2l0,0c-0.1,0-0.2,0-0.3-0.1l-0.3,0.3
					C14.2,12.6,14.1,12.6,14,12.6z M19.4,5.7c-0.1,0-0.2,0-0.3,0.1l-5,5c-0.1,0.1-0.1,0.4,0,0.5l0.1,0.1l-0.5,0.5c0,0,0,0.1,0,0.1
					l0.3,0.4c0,0,0.1,0,0.1,0l0.5-0.5l0.1,0.1c0.1,0.1,0.4,0.1,0.5,0l5-5c0.1-0.1,0.1-0.4,0-0.5l-0.6-0.6
					C19.6,5.7,19.5,5.7,19.4,5.7z"/>
			</g>
			<path class="st3" d="M19.8,7.6L21.3,6c0.4-0.4,0.4-1,0-1.3l0,0c-0.4-0.4-1-0.4-1.3,0l-1.6,1.6L19.8,7.6z"/>
			<path class="st4" d="M19.8,7.6L21.3,6c0.4-0.4,0.4-1,0-1.3l-2.2,2.2L19.8,7.6z"/>
			<g>
				<path class="st2" d="M19.8,7.7l-1.5-1.5l1.6-1.6c0.2-0.2,0.5-0.3,0.8-0.3c0.3,0,0.6,0.1,0.8,0.3c0.4,0.4,0.4,1.1,0,1.5L19.8,7.7
					z M18.6,6.2l1.2,1.2l1.5-1.5c0.3-0.3,0.3-0.8,0-1.2c-0.3-0.3-0.9-0.3-1.2,0L18.6,6.2z"/>
			</g>
			<path class="st0" d="M20.6,7.9c0.1,0.1,0.1,0.4,0,0.5l0,0c-0.1,0.1-0.4,0.1-0.5,0l-2.5-2.5c-0.1-0.1-0.1-0.4,0-0.5l0,0
				c0.1-0.1,0.4-0.1,0.5,0L20.6,7.9z"/>
			<g>
				<path class="st2" d="M20.3,8.6c-0.1,0-0.3-0.1-0.3-0.1L17.5,6c-0.1-0.1-0.1-0.2-0.1-0.3c0-0.1,0.1-0.3,0.1-0.3
					c0.2-0.2,0.5-0.2,0.7,0l2.5,2.5c0.2,0.2,0.2,0.5,0,0.7C20.6,8.6,20.5,8.6,20.3,8.6z M17.8,5.4c-0.1,0-0.1,0-0.2,0.1
					c0,0-0.1,0.1-0.1,0.2c0,0.1,0,0.1,0.1,0.2l2.5,2.5c0.1,0.1,0.3,0.1,0.4,0c0.1-0.1,0.1-0.3,0-0.4L18,5.5
					C18,5.4,17.9,5.4,17.8,5.4z"/>
			</g>
		</g>
		<path class="st5" d="M14.7,15.1c0,0.7-0.5,1.2-1.2,1.2s-1.2-0.5-1.2-1.2c0-0.7,1.3-2.5,1.3-2.5S14.7,14.4,14.7,15.1z"/>
		<g>
			<path class="st2" d="M13.5,16.4c-0.7,0-1.3-0.6-1.3-1.3c0-0.7,1.3-2.4,1.3-2.5l0.1-0.1l0.1,0.1c0,0.1,1.1,1.8,1.1,2.5
				C14.8,15.8,14.2,16.4,13.5,16.4z M13.6,12.8c-0.4,0.6-1.2,1.8-1.2,2.2c0,0.6,0.5,1.1,1.1,1.1c0.6,0,1.1-0.5,1.1-1.1
				C14.6,14.6,13.9,13.4,13.6,12.8z"/>
		</g>
		<g>
			<path class="st2" d="M13.5,16c0,0-0.1,0-0.1-0.1c0-0.1,0-0.1,0.1-0.1c0.3-0.1,0.6-0.3,0.7-0.6c0-0.1,0.1-0.1,0.2-0.1
				c0.1,0,0.1,0.1,0.1,0.2C14.3,15.6,14,15.9,13.5,16C13.6,16,13.6,16,13.5,16z"/>
		</g>
	</g>
	<g>
		<path class="st6" d="M9.1,22.7c0,0.3-0.3,0.5-0.6,0.5H4.7c-0.3,0-0.6-0.2-0.6-0.5v-3.1c0-0.3,0.3-0.5,0.6-0.5h3.8
			c0.3,0,0.6,0.2,0.6,0.5V22.7z"/>
		<path class="st0" d="M15.2,22.7c0,0.3-0.3,0.5-0.6,0.5h-3.8c-0.3,0-0.6-0.2-0.6-0.5v-3.1c0-0.3,0.3-0.5,0.6-0.5h3.8
			c0.3,0,0.6,0.2,0.6,0.5V22.7z"/>
		<path class="st5" d="M21.4,22.7c0,0.3-0.3,0.5-0.6,0.5H17c-0.3,0-0.6-0.2-0.6-0.5v-3.1c0-0.3,0.3-0.5,0.6-0.5h3.8
			c0.3,0,0.6,0.2,0.6,0.5V22.7z"/>
		<g>
			<path class="st2" d="M8.5,23.3H4.7c-0.4,0-0.8-0.3-0.8-0.6v-3.1c0-0.4,0.4-0.6,0.8-0.6h3.8c0.4,0,0.8,0.3,0.8,0.6v3.1
				C9.3,23,8.9,23.3,8.5,23.3z M4.7,19.3c-0.2,0-0.4,0.1-0.4,0.3v3.1c0,0.2,0.2,0.3,0.4,0.3h3.8c0.2,0,0.4-0.1,0.4-0.3v-3.1
				c0-0.2-0.2-0.3-0.4-0.3H4.7z"/>
		</g>
		<g>
			<path class="st2" d="M14.7,23.3h-3.8c-0.4,0-0.8-0.3-0.8-0.6v-3.1c0-0.4,0.4-0.6,0.8-0.6h3.8c0.4,0,0.8,0.3,0.8,0.6v3.1
				C15.5,23,15.1,23.3,14.7,23.3z M10.9,19.3c-0.2,0-0.4,0.1-0.4,0.3v3.1c0,0.2,0.2,0.3,0.4,0.3h3.8c0.2,0,0.4-0.1,0.4-0.3v-3.1
				c0-0.2-0.2-0.3-0.4-0.3H10.9z"/>
		</g>
		<g>
			<path class="st2" d="M20.8,23.3H17c-0.4,0-0.8-0.3-0.8-0.6v-3.1c0-0.4,0.4-0.6,0.8-0.6h3.8c0.4,0,0.8,0.3,0.8,0.6v3.1
				C21.6,23,21.3,23.3,20.8,23.3z M17,19.3c-0.2,0-0.4,0.1-0.4,0.3v3.1c0,0.2,0.2,0.3,0.4,0.3h3.8c0.2,0,0.4-0.1,0.4-0.3v-3.1
				c0-0.2-0.2-0.3-0.4-0.3H17z"/>
		</g>
		<g>
			<path class="st2" d="M8.1,22.3c-0.1,0-0.2-0.1-0.2-0.2v-2c0-0.1,0.1-0.2,0.2-0.2c0.1,0,0.2,0.1,0.2,0.2v2
				C8.3,22.2,8.2,22.3,8.1,22.3z"/>
		</g>
		<g>
			<path class="st2" d="M14.3,22.3c-0.1,0-0.2-0.1-0.2-0.2v-2c0-0.1,0.1-0.2,0.2-0.2c0.1,0,0.2,0.1,0.2,0.2v2
				C14.5,22.2,14.4,22.3,14.3,22.3z"/>
		</g>
		<g>
			<path class="st2" d="M20.5,22.3c-0.1,0-0.2-0.1-0.2-0.2v-2c0-0.1,0.1-0.2,0.2-0.2c0.1,0,0.2,0.1,0.2,0.2v2
				C20.7,22.2,20.6,22.3,20.5,22.3z"/>
		</g>
	</g>
</g>
</svg>
