<svg width="57" height="57" xmlns="http://www.w3.org/2000/svg" xmlns:xlink="http://www.w3.org/1999/xlink"><svg version="1.1" id="back-end" viewBox="-1 -1 28.3 28.3" xml:space="preserve" width="28.3" height="28.3" xmlns="http://www.w3.org/2000/svg"><style>.ast0{fill:#414042}</style><path class="ast0" d="M6.9 18c-.6 0-1.2 0-1.5-.1-2.1-.6-3.3-3.1-3.3-5.1v-1.2c0-.1 0-.2.1-.2 0-.1 0-.1.1-.2 0-.1.1-.2.1-.2 0-.1.1-.1.1-.2s.1-.1.1-.2.1-.1.1-.2.1-.1.1-.2c.2-.1.2-.2.2-.2 0-.1.1-.1.1-.2l.1-.1.2-.2.2-.2c.2-.2.3-.2.3-.3l.1-.1h.1c.1-.1.1-.1.2-.1s.1-.1.2-.1c.1-.1.2-.1.2-.1.1 0 .1-.1.2-.1 0-.1.1-.2.1-.2.1 0 .1-.1.2-.1s.1-.1.2-.1.1-.1.2-.1h.2l.1.2v-.3c.1.1.1.1.2.1h.6c.3-2.6 2.5-4.6 5-4.6h.8c.1 0 .3 0 .4.1h.2c.1 0 .3.1.4.1l.2.1c.1.2.3.2.4.3.2.1.4.2.5.3.2.1.3.2.4.3l.1.1.3.3.1.1c.1.1.2.3.3.4.4.6.7 1.2.8 1.9 1.5.1 2.8 1 3.3 2.4.3 0 .6.1.9.1.2.1.4.1.6.2l.6.3c.4.3.7.6.9.9l.3.6c.1.2.2.4.2.6.1.3.1.7.1 1.1 0 2-1.3 4.2-3.4 4.2h-.7v-.5h.7c1.8 0 2.9-1.8 2.9-3.6 0-.3 0-.6-.1-.9-.1-.2-.1-.4-.2-.5-.1-.2-.2-.4-.3-.5-.2-.3-.5-.6-.8-.8-.1-.1-.3-.2-.5-.3-.2-.1-.4-.2-.5-.2-.3-.1-.6-.1-.9-.1h-.3l-.1-.2C19.2 9 18 8.1 16.5 8.1h-.2v-.2c-.1-.7-.4-1.3-.8-1.9-.1-.1-.2-.3-.3-.4l-.3-.3-.1-.1-.3-.3.1-.3-.2.2c-.1-.1-.3-.2-.4-.3-.2-.1-.3-.2-.5-.2l-.1-.1c-.1 0-.2-.1-.3-.1h-.2c-.1 0-.2 0-.4-.1h-.7C9.4 4 7.4 5.8 7.1 8.2v.2H5.8c-.1 0-.1 0-.2.1-.1 0-.1 0-.2.1-.1 0-.1.1-.2.1s-.1.1-.2.1c0 .1 0 .1-.1.2-.1 0-.1 0-.2.1 0 0-.1 0-.1.1l-.1.1h-.2s-.1 0-.1.1c-.1 0-.1.1-.2.1 0 .1-.1.2-.1.3-.1 0-.1.1-.2.1l-.1.1c0 .1-.1.1-.1.2l-.1.1c0 .1-.1.1-.1.2s-.1.1-.1.2-.1.1-.1.2-.1.2-.1.2c0 .1 0 .1-.1.2 0 .1-.1.1-.1.2v1.3c0 1.8 1 4.1 2.9 4.6.1 0 .4.1 1.3.1l-.1.5c.1 0 0 0 0 0z"/><path class="ast0" d="M15.5 11c-.1 0-.1 0-.2-.1s-.1-.3 0-.4c.6-.8 1-1.8 1-2.9 0-.1.1-.3.3-.3.1 0 .3.1.3.3 0 1.2-.4 2.3-1.1 3.2-.1.1-.2.2-.3.2zm2.4.4c-.1 0-.1 0-.2-.1s-.1-.3 0-.4c.7-.6 1.5-.9 2.4-.9.1 0 .3.1.3.3s-.1.3-.3.3c-.8 0-1.5.3-2.1.8h-.1zm-5.6 11.5h-.6c-.4 0-.7-.3-.7-.7v-.6c-.3-.1-.6-.2-.9-.4l-.4.4c-.3.3-.7.3-1 0l-.4-.4c-.1-.1-.2-.3-.2-.5s.1-.4.2-.5l.4-.4c-.2-.3-.3-.6-.4-.9h-.6c-.2 0-.4-.1-.5-.2-.1-.1-.2-.3-.2-.5v-.6c0-.4.3-.7.7-.7h.6c.1-.3.2-.6.4-.8l-.4-.4c-.3-.3-.3-.7 0-1l.4-.4c.3-.3.7-.3 1 0l.4.4c.3-.1.5-.3.8-.3v-.6c0-.4.3-.7.7-.7h.6c.4 0 .7.3.7.7v.6c.3.1.6.2.9.4l.4-.4c.3-.3.7-.3 1 0l.4.4c.1.1.2.3.2.5s-.1.4-.2.5l-.4.4c.2.3.3.6.4.9h.6c.4 0 .7.3.7.7v.6c0 .4-.3.7-.7.7h-.6c-.1.3-.2.6-.4.9l.4.4c.1.1.2.3.2.5s-.1.4-.2.5l-.4.4c-.3.3-.7.3-1 0l-.4-.4c-.3.2-.6.3-.9.4v.6c.1.2-.2.5-.6.5z"/><path d="M10.1 20.7l.1.1c.3.2.7.3 1 .4h.2v.9c0 .2.1.3.3.3h.6v.2-.2c.2 0 .3-.1.3-.3v-.9h.2c.4-.1.7-.2 1-.4l.1-.1.7.7c.1.1.3.1.4 0l.4-.4c.1-.1.1-.1.1-.2s0-.1-.1-.2l-.7-.7.1-.1c.2-.3.3-.7.4-1v-.2h.9c.2 0 .3-.1.3-.3v-.6c0-.2-.1-.3-.3-.3h-.9v-.2c-.1-.4-.2-.7-.4-1l-.1-.1.7-.7c.1-.1.1-.1.1-.2s0-.1-.1-.2l-.4-.3c-.1-.1-.3-.1-.4 0l-.7.7-.1-.1c-.3-.2-.7-.3-1-.4h-.2V14c0-.2-.1-.3-.3-.3h-.6c-.2 0-.3.1-.3.3v.9h-.2c-.4.1-.7.2-1 .4l-.1.1-.7-.7c-.1-.1-.3-.1-.4 0l-.4.4c-.1.1-.1.3 0 .4l.7.7-.1.1c-.2.3-.3.7-.4 1v.2h-.9c-.2 0-.3.1-.3.3v.6c0 .1 0 .1.1.2s.1.1.2.1h.9v.2c.1.4.2.7.4 1l.1.1-.7.7c-.1.1-.1.1-.1.2s0 .1.1.2l.4.4c.1.1.3.1.4 0l.7-.8z" fill="#fff"/><circle class="ast0" cx="12" cy="18" r="1.8"/><circle cx="12" cy="18" r="1.3" fill="#d3d3d3"/></svg><svg version="1.1" id="front-end" x="28.3" viewBox="-1 -1 28.3 28.3" xml:space="preserve" width="28.3" height="28.3" xmlns="http://www.w3.org/2000/svg"><style>.bst3{fill:#d6d6d6}.bst5{fill:#d6dadd}</style><path d="M21.6 7.3H4.8c-.4 0-.8.3-.8.7v10.4h18.6V8.1c-.2-.5-.5-.8-1-.8z" fill="#fff"/><path d="M19.3 11l-3 3h-3.1l-3-1.9L7.1 14l-3 1.1v4.1h18.3v-8.5z" fill="#eaeaea"/><path d="M4.1 15.2L4 15l3.1-1.1 3.1-1.9 3 1.9h3l3.1-3 3.1-.3v.1l-3 .4-3.1 3h-3.1l-3-1.9-3 1.9z" fill="#f4f4f4"/><ellipse class="bst3" cx="7.1" cy="14" rx=".4" ry=".4"/><ellipse class="bst3" cx="10.2" cy="12.1" rx=".4" ry=".4"/><ellipse class="bst3" cx="19.3" cy="11" rx=".4" ry=".4"/><ellipse class="bst3" cx="16.3" cy="14" rx=".4" ry=".4"/><ellipse class="bst3" cx="13.2" cy="14" rx=".4" ry=".4"/><path d="M1.8 18.4c0 .8.7 1.5 1.5 1.5h19.8c.8 0 1.5-.7 1.5-1.5H1.8z" fill="#b7b7b7"/><path class="bst5" d="M10.9 18.4c0 .4.3.7.8.7v-.7h-.8zm3.9.8c.4 0 .8-.3.8-.7h-.8v.7z"/><path class="bst5" d="M14 18.4h-1.5c0 .4-.3.7-.8.7h3.1c-.5.1-.8-.3-.8-.7z"/><path class="bst5" d="M12.5 18.4h-.8v.7c.4.1.8-.3.8-.7zm1.5 0c0 .4.3.7.8.7v-.7H14z"/><path d="M22.1 8.2V18H4.4V8s0-.3.3-.3h16.8c.4 0 .6.5.6.5zm-.5-.9H4.8c-.4 0-.8.3-.8.7v10.4h18.3V8.1c.1-.5-.2-.8-.7-.8z" fill="#545354"/><path d="M9.7 10.8l2.5-1.1v.4l-2 .9 2 .9v.4l-2.5-1.1v-.4zm2.9 1.7l1.3-3.6h.5l-1.3 3.6h-.5zm4.6-1.3l-2.5 1.1v-.4l2-.9-2-.9v-.4l2.5 1.1v.4z" fill="#58595b"/></svg><svg version="1.1" id="graphic" y="28.3" viewBox="-1 -1 28.3 28.3" xml:space="preserve" width="28.3" height="28.3" xmlns="http://www.w3.org/2000/svg"><style>.cst0{fill:#fff}.cst2{fill:#414042}.cst5{fill:#e5e5e5}</style><path class="cst0" d="M19 5.7l-5 5c-.2.2-.2.5 0 .7l-.4.4c-.1.1-.1.2 0 .3l.4.4c.1.1.2.1.3 0l.4-.4c.2.2.5.1.7 0l5-5c.2-.2.2-.5 0-.7l-.6-.6c-.3-.3-.6-.3-.8-.1z"/><path d="M13.7 12.3l.2.2c.1.1.2.1.3 0l.4-.4c.2.2.5.1.7 0l5-5c.2-.2.2-.5 0-.7L20 6l-6.3 6.3z" fill="#f1f2f2"/><path class="cst2" d="M14 12.6c-.1 0-.2 0-.2-.1l-.4-.4c-.1-.1-.1-.3 0-.4l.3-.3c-.1-.2-.1-.5.1-.7l5-5c.2-.2.6-.2.9 0l.6.6c.2.2.2.6 0 .9l-5 5c-.1.1-.3.2-.4.2-.1 0-.2 0-.3-.1l-.3.3H14zm5.4-6.9c-.1 0-.2 0-.3.1l-5 5c-.1.1-.1.4 0 .5l.1.1-.5.5v.1l.3.4h.1l.5-.5.1.1c.1.1.4.1.5 0l5-5c.1-.1.1-.4 0-.5l-.6-.6c0-.2-.1-.2-.2-.2z"/><path d="M19.8 7.6L21.3 6c.4-.4.4-1 0-1.3-.4-.4-1-.4-1.3 0l-1.6 1.6 1.4 1.3z" fill="#d1d1d1"/><path d="M19.8 7.6L21.3 6c.4-.4.4-1 0-1.3l-2.2 2.2.7.7z" fill="#afafaf"/><path class="cst2" d="M19.8 7.7l-1.5-1.5 1.6-1.6c.2-.2.5-.3.8-.3.3 0 .6.1.8.3.4.4.4 1.1 0 1.5l-1.7 1.6zm-1.2-1.5l1.2 1.2 1.5-1.5c.3-.3.3-.8 0-1.2-.3-.3-.9-.3-1.2 0l-1.5 1.5z"/><path class="cst0" d="M20.6 7.9c.1.1.1.4 0 .5-.1.1-.4.1-.5 0l-2.5-2.5c-.1-.1-.1-.4 0-.5.1-.1.4-.1.5 0l2.5 2.5z"/><path class="cst2" d="M20.3 8.6c-.1 0-.3-.1-.3-.1L17.5 6c-.1-.1-.1-.2-.1-.3 0-.1.1-.3.1-.3.2-.2.5-.2.7 0l2.5 2.5c.2.2.2.5 0 .7h-.4zm-2.5-3.2c-.1 0-.1 0-.2.1 0 0-.1.1-.1.2s0 .1.1.2l2.5 2.5c.1.1.3.1.4 0 .1-.1.1-.3 0-.4L18 5.5c0-.1-.1-.1-.2-.1z"/><path class="cst5" d="M14.7 15.1c0 .7-.5 1.2-1.2 1.2s-1.2-.5-1.2-1.2 1.3-2.5 1.3-2.5 1.1 1.8 1.1 2.5z"/><path class="cst2" d="M13.5 16.4c-.7 0-1.3-.6-1.3-1.3 0-.7 1.3-2.4 1.3-2.5l.1-.1.1.1c0 .1 1.1 1.8 1.1 2.5s-.6 1.3-1.3 1.3zm.1-3.6c-.4.6-1.2 1.8-1.2 2.2 0 .6.5 1.1 1.1 1.1.6 0 1.1-.5 1.1-1.1 0-.4-.7-1.6-1-2.2z"/><path class="cst2" d="M13.5 16s-.1 0-.1-.1 0-.1.1-.1c.3-.1.6-.3.7-.6 0-.1.1-.1.2-.1s.1.1.1.2c-.2.3-.5.6-1 .7.1 0 .1 0 0 0z"/><path d="M9.1 22.7c0 .3-.3.5-.6.5H4.7c-.3 0-.6-.2-.6-.5v-3.1c0-.3.3-.5.6-.5h3.8c.3 0 .6.2.6.5v3.1z" fill="#d6d6d6"/><path class="cst0" d="M15.2 22.7c0 .3-.3.5-.6.5h-3.8c-.3 0-.6-.2-.6-.5v-3.1c0-.3.3-.5.6-.5h3.8c.3 0 .6.2.6.5v3.1z"/><path class="cst5" d="M21.4 22.7c0 .3-.3.5-.6.5H17c-.3 0-.6-.2-.6-.5v-3.1c0-.3.3-.5.6-.5h3.8c.3 0 .6.2.6.5v3.1z"/><path class="cst2" d="M8.5 23.3H4.7c-.4 0-.8-.3-.8-.6v-3.1c0-.4.4-.6.8-.6h3.8c.4 0 .8.3.8.6v3.1c0 .3-.4.6-.8.6zm-3.8-4c-.2 0-.4.1-.4.3v3.1c0 .2.2.3.4.3h3.8c.2 0 .4-.1.4-.3v-3.1c0-.2-.2-.3-.4-.3H4.7zm10 4h-3.8c-.4 0-.8-.3-.8-.6v-3.1c0-.4.4-.6.8-.6h3.8c.4 0 .8.3.8.6v3.1c0 .3-.4.6-.8.6zm-3.8-4c-.2 0-.4.1-.4.3v3.1c0 .2.2.3.4.3h3.8c.2 0 .4-.1.4-.3v-3.1c0-.2-.2-.3-.4-.3h-3.8zm9.9 4H17c-.4 0-.8-.3-.8-.6v-3.1c0-.4.4-.6.8-.6h3.8c.4 0 .8.3.8.6v3.1c0 .3-.3.6-.8.6zm-3.8-4c-.2 0-.4.1-.4.3v3.1c0 .2.2.3.4.3h3.8c.2 0 .4-.1.4-.3v-3.1c0-.2-.2-.3-.4-.3H17z"/><path class="cst2" d="M8.1 22.3c-.1 0-.2-.1-.2-.2v-2c0-.1.1-.2.2-.2s.2.1.2.2v2c0 .1-.1.2-.2.2zm6.2 0c-.1 0-.2-.1-.2-.2v-2c0-.1.1-.2.2-.2s.2.1.2.2v2c0 .1-.1.2-.2.2zm6.2 0c-.1 0-.2-.1-.2-.2v-2c0-.1.1-.2.2-.2s.2.1.2.2v2c0 .1-.1.2-.2.2z"/></svg></svg>